<svg width="190" height="200" viewBox="0 0 190 200" fill="none" xmlns="http://www.w3.org/2000/svg">
<path d="M190 100.372C190 44.9324 147.473 0 95 0C42.5273 0 0 44.9324 0 100.372C0 147.422 30.6895 186.944 72.0664 197.804V131.033H52.4727V100.372H72.0664V87.1594C72.0664 53.0092 86.6875 37.1692 118.453 37.1692C124.465 37.1692 134.855 38.4238 139.123 39.6785V67.4378C136.896 67.2025 133 67.0457 128.139 67.0457C112.553 67.0457 106.541 73.2797 106.541 89.4727V100.372H137.564L132.221 131.033H106.504V200C153.559 194.001 190 151.696 190 100.372Z" fill="#FFFCF5"/>
</svg>
