<svg width="213" height="224" viewBox="0 0 213 224" fill="none" xmlns="http://www.w3.org/2000/svg">
<path d="M213 112.417C213 50.3243 165.325 0 106.5 0C47.6754 0 0 50.3243 0 112.417C0 165.113 34.4045 209.377 80.7902 221.541V146.757H58.8246V112.417H80.7902V97.6185C80.7902 59.3703 97.1813 41.6295 132.792 41.6295C139.532 41.6295 151.18 43.0347 155.964 44.4399V75.5303C153.468 75.2668 149.1 75.0912 143.65 75.0912C126.178 75.0912 119.438 82.0733 119.438 100.209V112.417H154.217L148.226 146.757H119.396V224C172.147 217.281 213 169.899 213 112.417Z" fill="black"/>
</svg>
