<svg width="24" height="21" viewBox="0 0 24 21" fill="none" xmlns="http://www.w3.org/2000/svg">
<path d="M2.23125 12.1054L10.7016 20.0132C11.0531 20.3414 11.5172 20.5242 12 20.5242C12.4828 20.5242 12.9469 20.3414 13.2984 20.0132L21.7687 12.1054C23.1938 10.7789 24 8.91793 24 6.97261V6.70074C24 3.42418 21.6328 0.630427 18.4031 0.0913643C16.2656 -0.264886 14.0906 0.433552 12.5625 1.96168L12 2.52418L11.4375 1.96168C9.90938 0.433552 7.73438 -0.264886 5.59688 0.0913643C2.36719 0.630427 0 3.42418 0 6.70074V6.97261C0 8.91793 0.80625 10.7789 2.23125 12.1054Z" fill="#8DACB1"/>
</svg>
