<svg width="190" height="199" viewBox="0 0 190 199" fill="none" xmlns="http://www.w3.org/2000/svg">
<path d="M95.0212 48.4789C68.063 48.4789 46.3185 71.2586 46.3185 99.5C46.3185 127.741 68.063 150.521 95.0212 150.521C121.979 150.521 143.724 127.741 143.724 99.5C143.724 71.2586 121.979 48.4789 95.0212 48.4789ZM95.0212 132.67C77.6001 132.67 63.3581 117.795 63.3581 99.5C63.3581 81.2052 77.5577 66.3296 95.0212 66.3296C112.485 66.3296 126.684 81.2052 126.684 99.5C126.684 117.795 112.442 132.67 95.0212 132.67ZM157.076 46.3919C157.076 53.0082 151.989 58.2924 145.716 58.2924C139.4 58.2924 134.356 52.9638 134.356 46.3919C134.356 39.82 139.443 34.4914 145.716 34.4914C151.989 34.4914 157.076 39.82 157.076 46.3919ZM189.332 58.47C188.612 42.5287 185.136 28.408 173.988 16.7739C162.883 5.13985 149.404 1.49866 134.187 0.699375C118.504 -0.233125 71.4964 -0.233125 55.8132 0.699375C40.6386 1.45426 27.1595 5.09545 16.0117 16.7295C4.86392 28.3636 1.43056 42.4843 0.667596 58.4256C-0.222532 74.8553 -0.222532 124.1 0.667596 140.53C1.38818 156.471 4.86392 170.592 16.0117 182.226C27.1595 193.86 40.5962 197.501 55.8132 198.301C71.4964 199.233 118.504 199.233 134.187 198.301C149.404 197.546 162.883 193.905 173.988 182.226C185.094 170.592 188.569 156.471 189.332 140.53C190.223 124.1 190.223 74.8998 189.332 58.47ZM169.071 158.159C165.765 166.862 159.365 173.567 151.014 177.075C138.51 182.27 108.839 181.072 95.0212 181.072C81.203 181.072 51.4897 182.226 39.0279 177.075C30.72 173.612 24.3196 166.906 20.971 158.159C16.0117 145.059 17.1562 113.976 17.1562 99.5C17.1562 85.024 16.0541 53.8963 20.971 40.8413C24.2772 32.138 30.6776 25.4328 39.0279 21.9249C51.5321 16.7295 81.203 17.9284 95.0212 17.9284C108.839 17.9284 138.553 16.7739 151.014 21.9249C159.322 25.3884 165.723 32.0936 169.071 40.8413C174.031 53.9407 172.886 85.024 172.886 99.5C172.886 113.976 174.031 145.104 169.071 158.159Z" fill="#FFFCF5"/>
</svg>
