<svg width="213" height="224" viewBox="0 0 213 224" fill="none" xmlns="http://www.w3.org/2000/svg">
<path d="M106.524 54.5692C76.3022 54.5692 51.9254 80.2106 51.9254 112C51.9254 143.789 76.3022 169.431 106.524 169.431C136.745 169.431 161.122 143.789 161.122 112C161.122 80.2106 136.745 54.5692 106.524 54.5692ZM106.524 149.337C86.9938 149.337 71.0277 132.593 71.0277 112C71.0277 91.4069 86.9463 74.6625 106.524 74.6625C126.101 74.6625 142.02 91.4069 142.02 112C142.02 132.593 126.054 149.337 106.524 149.337ZM176.09 52.22C176.09 59.6675 170.388 65.6155 163.355 65.6155C156.275 65.6155 150.621 59.6175 150.621 52.22C150.621 44.8225 156.323 38.8245 163.355 38.8245C170.388 38.8245 176.09 44.8225 176.09 52.22ZM212.252 65.8155C211.444 47.8715 207.547 31.9768 195.05 18.8812C182.6 5.78556 167.49 1.68694 150.43 0.787236C132.849 -0.262412 80.1512 -0.262412 62.5695 0.787236C45.558 1.63695 30.4472 5.73558 17.95 18.8312C5.45271 31.9268 1.60374 47.8215 0.74841 65.7655C-0.24947 84.2593 -0.24947 139.691 0.74841 158.185C1.55622 176.129 5.45271 192.023 17.95 205.119C30.4472 218.214 45.5105 222.313 62.5695 223.213C80.1512 224.262 132.849 224.262 150.43 223.213C167.49 222.363 182.6 218.264 195.05 205.119C207.5 192.023 211.396 176.129 212.252 158.185C213.249 139.691 213.249 84.3093 212.252 65.8155ZM189.538 178.028C185.831 187.825 178.656 195.372 169.295 199.321C155.277 205.169 122.015 203.819 106.524 203.819C91.0328 203.819 57.7226 205.119 43.7523 199.321C34.4388 195.422 27.2635 187.875 23.5096 178.028C17.95 163.283 19.233 128.295 19.233 112C19.233 95.7055 17.9975 60.6672 23.5096 45.9721C27.216 36.1754 34.3912 28.6279 43.7523 24.6792C57.7702 18.8312 91.0328 20.1807 106.524 20.1807C122.015 20.1807 155.325 18.8812 169.295 24.6792C178.609 28.5779 185.784 36.1254 189.538 45.9721C195.098 60.7172 193.815 95.7055 193.815 112C193.815 128.295 195.098 163.333 189.538 178.028Z" fill="black"/>
</svg>
