<svg width="280" height="65" viewBox="0 0 280 65" fill="none" xmlns="http://www.w3.org/2000/svg">
<path d="M36.7474 9.784C38.5207 9.784 40.07 10.1853 41.3954 10.988C42.7394 11.7907 43.7754 12.948 44.5034 14.46C45.25 15.9533 45.6234 17.7733 45.6234 19.92C45.6234 22.0107 45.2407 23.84 44.4754 25.408C43.7287 26.976 42.6834 28.1987 41.3394 29.076C39.9954 29.9533 38.4554 30.392 36.7194 30.392C34.946 30.392 33.3874 29.9907 32.0434 29.188C30.718 28.3853 29.682 27.228 28.9354 25.716C28.2074 24.204 27.8434 22.384 27.8434 20.256C27.8434 18.1653 28.226 16.336 28.9914 14.768C29.7567 13.2 30.802 11.9773 32.1274 11.1C33.4714 10.2227 35.0114 9.784 36.7474 9.784ZM36.6354 10.288C35.422 10.288 34.3674 10.708 33.4714 11.548C32.5754 12.388 31.8754 13.5453 31.3714 15.02C30.886 16.4947 30.6434 18.2027 30.6434 20.144C30.6434 22.1227 30.914 23.8493 31.4554 25.324C32.0154 26.78 32.762 27.9093 33.6954 28.712C34.6474 29.496 35.6927 29.888 36.8314 29.888C38.0447 29.888 39.0994 29.468 39.9954 28.628C40.8914 27.788 41.582 26.6307 42.0674 25.156C42.5714 23.6627 42.8234 21.9547 42.8234 20.032C42.8234 18.0347 42.5434 16.308 41.9834 14.852C41.442 13.396 40.7047 12.276 39.7714 11.492C38.838 10.6893 37.7927 10.288 36.6354 10.288ZM70.1065 10.176V10.736C69.4719 10.7547 68.9865 10.8293 68.6505 10.96C68.3332 11.072 68.1185 11.296 68.0065 11.632C67.8945 11.9493 67.8385 12.4533 67.8385 13.144V27.032C67.8385 27.704 67.8945 28.208 68.0065 28.544C68.1185 28.88 68.3332 29.104 68.6505 29.216C68.9865 29.328 69.4719 29.4027 70.1065 29.44V30C69.6772 29.9627 69.1359 29.944 68.4825 29.944C67.8479 29.9253 67.2039 29.916 66.5505 29.916C65.8225 29.916 65.1412 29.9253 64.5065 29.944C63.8719 29.944 63.3585 29.9627 62.9665 30V29.44C63.6012 29.4027 64.0772 29.328 64.3945 29.216C64.7305 29.104 64.9545 28.88 65.0665 28.544C65.1785 28.208 65.2345 27.704 65.2345 27.032V11.632L65.3465 11.716L58.4865 30.14H58.0385L50.9825 11.968V26.752C50.9825 27.424 51.0385 27.956 51.1505 28.348C51.2812 28.7213 51.5239 28.992 51.8785 29.16C52.2519 29.3093 52.8025 29.4027 53.5305 29.44V30C53.1945 29.9627 52.7559 29.944 52.2145 29.944C51.6732 29.9253 51.1599 29.916 50.6745 29.916C50.2079 29.916 49.7319 29.9253 49.2465 29.944C48.7799 29.944 48.3879 29.9627 48.0705 30V29.44C48.7052 29.4027 49.1812 29.3093 49.4985 29.16C49.8345 28.992 50.0585 28.7213 50.1705 28.348C50.2825 27.956 50.3385 27.424 50.3385 26.752V13.144C50.3385 12.4533 50.2825 11.9493 50.1705 11.632C50.0585 11.296 49.8345 11.072 49.4985 10.96C49.1812 10.8293 48.7052 10.7547 48.0705 10.736V10.176C48.3879 10.1947 48.7799 10.2133 49.2465 10.232C49.7319 10.2507 50.2079 10.26 50.6745 10.26C51.0852 10.26 51.5052 10.2507 51.9345 10.232C52.3825 10.2133 52.7559 10.1947 53.0545 10.176L59.4105 26.92L58.9345 27.144L65.2345 10.26C65.4585 10.26 65.6732 10.26 65.8785 10.26C66.1025 10.26 66.3265 10.26 66.5505 10.26C67.2039 10.26 67.8479 10.2507 68.4825 10.232C69.1359 10.2133 69.6772 10.1947 70.1065 10.176ZM81.4544 9.784C82.6864 9.784 83.6944 9.97067 84.4784 10.344C85.2811 10.6987 85.9904 11.1187 86.6064 11.604C86.9797 11.884 87.2597 11.9213 87.4464 11.716C87.6517 11.492 87.7917 10.9787 87.8664 10.176H88.5104C88.4731 10.8667 88.4451 11.7067 88.4264 12.696C88.4077 13.6853 88.3984 14.992 88.3984 16.616H87.7544C87.6237 15.8133 87.5024 15.1787 87.3904 14.712C87.2784 14.2267 87.1384 13.816 86.9704 13.48C86.8211 13.144 86.6157 12.808 86.3544 12.472C85.7757 11.7067 85.0477 11.156 84.1704 10.82C83.2931 10.4653 82.3691 10.288 81.3984 10.288C80.4837 10.288 79.6531 10.5213 78.9064 10.988C78.1784 11.436 77.5437 12.0893 77.0024 12.948C76.4797 13.8067 76.0691 14.8427 75.7704 16.056C75.4904 17.2693 75.3504 18.632 75.3504 20.144C75.3504 21.712 75.5091 23.1027 75.8264 24.316C76.1437 25.5107 76.5824 26.5187 77.1424 27.34C77.7211 28.1613 78.3931 28.7867 79.1584 29.216C79.9424 29.6267 80.7824 29.832 81.6784 29.832C82.5184 29.832 83.3957 29.664 84.3104 29.328C85.2251 28.992 85.9437 28.4507 86.4664 27.704C86.8771 27.1627 87.1571 26.5747 87.3064 25.94C87.4744 25.3053 87.6237 24.4187 87.7544 23.28H88.3984C88.3984 24.9787 88.4077 26.3507 88.4264 27.396C88.4451 28.4227 88.4731 29.2907 88.5104 30H87.8664C87.7917 29.1973 87.6611 28.6933 87.4744 28.488C87.3064 28.2827 87.0171 28.3107 86.6064 28.572C85.9157 29.0573 85.1784 29.4867 84.3944 29.86C83.6291 30.2147 82.6397 30.392 81.4264 30.392C79.6531 30.392 78.0944 29.9907 76.7504 29.188C75.4251 28.3853 74.3891 27.228 73.6424 25.716C72.9144 24.204 72.5504 22.384 72.5504 20.256C72.5504 18.1653 72.9331 16.336 73.6984 14.768C74.4637 13.2 75.5091 11.9773 76.8344 11.1C78.1784 10.2227 79.7184 9.784 81.4544 9.784ZM98.4924 10.176C98.8844 10.1947 99.3977 10.2133 100.032 10.232C100.667 10.2507 101.292 10.26 101.908 10.26C102.786 10.26 103.626 10.2507 104.428 10.232C105.231 10.2133 105.8 10.204 106.136 10.204C108.096 10.204 109.571 10.6147 110.56 11.436C111.55 12.2573 112.044 13.312 112.044 14.6C112.044 15.2533 111.904 15.8973 111.624 16.532C111.363 17.148 110.915 17.7173 110.28 18.24C109.664 18.744 108.834 19.1547 107.788 19.472V19.528C109.263 19.7147 110.411 20.0693 111.232 20.592C112.072 21.096 112.66 21.6933 112.996 22.384C113.332 23.0747 113.5 23.8027 113.5 24.568C113.5 25.632 113.23 26.5747 112.688 27.396C112.166 28.1987 111.4 28.8333 110.392 29.3C109.384 29.7667 108.18 30 106.78 30C106.37 30 105.754 29.9907 104.932 29.972C104.111 29.9347 103.122 29.916 101.964 29.916C101.311 29.916 100.667 29.9253 100.032 29.944C99.3977 29.944 98.8844 29.9627 98.4924 30V29.44C99.1271 29.4027 99.6031 29.328 99.9204 29.216C100.256 29.104 100.48 28.88 100.592 28.544C100.704 28.208 100.76 27.704 100.76 27.032V13.144C100.76 12.4533 100.704 11.9493 100.592 11.632C100.48 11.296 100.256 11.072 99.9204 10.96C99.6031 10.8293 99.1271 10.7547 98.4924 10.736V10.176ZM105.436 10.736C104.578 10.736 104.018 10.8947 103.756 11.212C103.495 11.5293 103.364 12.1733 103.364 13.144V27.032C103.364 27.6853 103.42 28.18 103.532 28.516C103.644 28.852 103.85 29.076 104.148 29.188C104.447 29.3 104.886 29.356 105.464 29.356C107.294 29.356 108.619 28.936 109.44 28.096C110.28 27.2373 110.7 26.024 110.7 24.456C110.7 23.0187 110.308 21.908 109.524 21.124C108.759 20.34 107.49 19.948 105.716 19.948H102.832C102.832 19.948 102.832 19.8733 102.832 19.724C102.832 19.556 102.832 19.472 102.832 19.472H105.24C106.342 19.472 107.191 19.2667 107.788 18.856C108.386 18.4267 108.796 17.8667 109.02 17.176C109.244 16.4667 109.356 15.7107 109.356 14.908C109.356 13.5267 109.048 12.4907 108.432 11.8C107.835 11.0907 106.836 10.736 105.436 10.736ZM125.15 9.784C126.923 9.784 128.472 10.1853 129.798 10.988C131.142 11.7907 132.178 12.948 132.906 14.46C133.652 15.9533 134.026 17.7733 134.026 19.92C134.026 22.0107 133.643 23.84 132.878 25.408C132.131 26.976 131.086 28.1987 129.742 29.076C128.398 29.9533 126.858 30.392 125.122 30.392C123.348 30.392 121.79 29.9907 120.446 29.188C119.12 28.3853 118.084 27.228 117.338 25.716C116.61 24.204 116.246 22.384 116.246 20.256C116.246 18.1653 116.628 16.336 117.394 14.768C118.159 13.2 119.204 11.9773 120.53 11.1C121.874 10.2227 123.414 9.784 125.15 9.784ZM125.038 10.288C123.824 10.288 122.77 10.708 121.874 11.548C120.978 12.388 120.278 13.5453 119.774 15.02C119.288 16.4947 119.046 18.2027 119.046 20.144C119.046 22.1227 119.316 23.8493 119.858 25.324C120.418 26.78 121.164 27.9093 122.098 28.712C123.05 29.496 124.095 29.888 125.234 29.888C126.447 29.888 127.502 29.468 128.398 28.628C129.294 27.788 129.984 26.6307 130.47 25.156C130.974 23.6627 131.226 21.9547 131.226 20.032C131.226 18.0347 130.946 16.308 130.386 14.852C129.844 13.396 129.107 12.276 128.174 11.492C127.24 10.6893 126.195 10.288 125.038 10.288ZM145.904 9.784C147.677 9.784 149.226 10.1853 150.552 10.988C151.896 11.7907 152.932 12.948 153.66 14.46C154.406 15.9533 154.78 17.7733 154.78 19.92C154.78 22.0107 154.397 23.84 153.632 25.408C152.885 26.976 151.84 28.1987 150.496 29.076C149.152 29.9533 147.612 30.392 145.876 30.392C144.102 30.392 142.544 29.9907 141.2 29.188C139.874 28.3853 138.838 27.228 138.092 25.716C137.364 24.204 137 22.384 137 20.256C137 18.1653 137.382 16.336 138.148 14.768C138.913 13.2 139.958 11.9773 141.284 11.1C142.628 10.2227 144.168 9.784 145.904 9.784ZM145.792 10.288C144.578 10.288 143.524 10.708 142.628 11.548C141.732 12.388 141.032 13.5453 140.528 15.02C140.042 16.4947 139.8 18.2027 139.8 20.144C139.8 22.1227 140.07 23.8493 140.612 25.324C141.172 26.78 141.918 27.9093 142.852 28.712C143.804 29.496 144.849 29.888 145.988 29.888C147.201 29.888 148.256 29.468 149.152 28.628C150.048 27.788 150.738 26.6307 151.224 25.156C151.728 23.6627 151.98 21.9547 151.98 20.032C151.98 18.0347 151.7 16.308 151.14 14.852C150.598 13.396 149.861 12.276 148.928 11.492C147.994 10.6893 146.949 10.288 145.792 10.288ZM173.271 10.176V10.736C172.692 10.8107 172.132 10.9973 171.591 11.296C171.049 11.5947 170.508 12.0893 169.967 12.78L164.563 19.696L165.179 18.324L171.899 27.732C172.216 28.1987 172.561 28.5627 172.935 28.824C173.308 29.0853 173.784 29.2907 174.363 29.44V30C173.915 29.9627 173.355 29.944 172.683 29.944C172.029 29.9253 171.469 29.916 171.003 29.916C170.685 29.916 170.293 29.9253 169.827 29.944C169.379 29.944 168.809 29.9627 168.119 30V29.44C168.753 29.4027 169.155 29.2907 169.323 29.104C169.491 28.9173 169.425 28.6093 169.127 28.18L165.039 22.02C164.665 21.4413 164.329 21.012 164.031 20.732C163.751 20.4333 163.452 20.2373 163.135 20.144C162.836 20.0507 162.453 19.9947 161.987 19.976V19.416C162.771 19.3973 163.424 19.248 163.947 18.968C164.488 18.6693 164.936 18.296 165.291 17.848L167.979 14.432C168.595 13.648 169.015 12.9853 169.239 12.444C169.463 11.9027 169.453 11.492 169.211 11.212C168.968 10.9133 168.455 10.7547 167.671 10.736V10.176C168.025 10.1947 168.389 10.2133 168.763 10.232C169.136 10.232 169.5 10.2413 169.855 10.26C170.228 10.26 170.573 10.26 170.891 10.26C171.376 10.26 171.824 10.2507 172.235 10.232C172.645 10.2133 172.991 10.1947 173.271 10.176ZM164.367 10.176V10.736C163.732 10.7547 163.247 10.8293 162.911 10.96C162.593 11.072 162.379 11.296 162.267 11.632C162.155 11.9493 162.099 12.4533 162.099 13.144V27.032C162.099 27.704 162.155 28.208 162.267 28.544C162.379 28.88 162.593 29.104 162.911 29.216C163.247 29.328 163.732 29.4027 164.367 29.44V30C163.937 29.9627 163.396 29.944 162.743 29.944C162.108 29.9253 161.464 29.916 160.811 29.916C160.083 29.916 159.401 29.9253 158.767 29.944C158.132 29.944 157.619 29.9627 157.227 30V29.44C157.861 29.4027 158.337 29.328 158.655 29.216C158.991 29.104 159.215 28.88 159.327 28.544C159.439 28.208 159.495 27.704 159.495 27.032V13.144C159.495 12.4533 159.439 11.9493 159.327 11.632C159.215 11.296 158.991 11.072 158.655 10.96C158.337 10.8293 157.861 10.7547 157.227 10.736V10.176C157.619 10.1947 158.132 10.2133 158.767 10.232C159.401 10.2507 160.083 10.26 160.811 10.26C161.464 10.26 162.108 10.2507 162.743 10.232C163.396 10.2133 163.937 10.1947 164.367 10.176ZM191.759 9.784C192.991 9.784 193.999 9.97067 194.783 10.344C195.586 10.6987 196.295 11.1187 196.911 11.604C197.284 11.884 197.564 11.9213 197.751 11.716C197.956 11.492 198.096 10.9787 198.171 10.176H198.815C198.778 10.8667 198.75 11.7067 198.731 12.696C198.712 13.6853 198.703 14.992 198.703 16.616H198.059C197.928 15.8133 197.807 15.1787 197.695 14.712C197.583 14.2267 197.443 13.816 197.275 13.48C197.126 13.144 196.92 12.808 196.659 12.472C196.08 11.7067 195.352 11.156 194.475 10.82C193.598 10.4653 192.674 10.288 191.703 10.288C190.788 10.288 189.958 10.5213 189.211 10.988C188.483 11.436 187.848 12.0893 187.307 12.948C186.784 13.8067 186.374 14.8427 186.075 16.056C185.795 17.2693 185.655 18.632 185.655 20.144C185.655 21.712 185.814 23.1027 186.131 24.316C186.448 25.5107 186.887 26.5187 187.447 27.34C188.026 28.1613 188.698 28.7867 189.463 29.216C190.247 29.6267 191.087 29.832 191.983 29.832C192.823 29.832 193.7 29.664 194.615 29.328C195.53 28.992 196.248 28.4507 196.771 27.704C197.182 27.1627 197.462 26.5747 197.611 25.94C197.779 25.3053 197.928 24.4187 198.059 23.28H198.703C198.703 24.9787 198.712 26.3507 198.731 27.396C198.75 28.4227 198.778 29.2907 198.815 30H198.171C198.096 29.1973 197.966 28.6933 197.779 28.488C197.611 28.2827 197.322 28.3107 196.911 28.572C196.22 29.0573 195.483 29.4867 194.699 29.86C193.934 30.2147 192.944 30.392 191.731 30.392C189.958 30.392 188.399 29.9907 187.055 29.188C185.73 28.3853 184.694 27.228 183.947 25.716C183.219 24.204 182.855 22.384 182.855 20.256C182.855 18.1653 183.238 16.336 184.003 14.768C184.768 13.2 185.814 11.9773 187.139 11.1C188.483 10.2227 190.023 9.784 191.759 9.784ZM208.964 10.176V10.736C208.33 10.7547 207.844 10.8293 207.508 10.96C207.191 11.072 206.976 11.296 206.864 11.632C206.752 11.9493 206.696 12.4533 206.696 13.144V27.032C206.696 27.704 206.752 28.208 206.864 28.544C206.976 28.88 207.191 29.104 207.508 29.216C207.844 29.3093 208.33 29.356 208.964 29.356H211.008C211.886 29.356 212.595 29.2627 213.136 29.076C213.696 28.8893 214.135 28.6 214.452 28.208C214.788 27.7973 215.04 27.256 215.208 26.584C215.376 25.912 215.507 25.0907 215.6 24.12H216.244C216.188 24.6987 216.16 25.464 216.16 26.416C216.16 26.7707 216.17 27.284 216.188 27.956C216.226 28.6093 216.282 29.2907 216.356 30C215.404 29.9627 214.331 29.944 213.136 29.944C211.942 29.9253 210.878 29.916 209.944 29.916C209.534 29.916 209.002 29.916 208.348 29.916C207.714 29.916 207.023 29.9253 206.276 29.944C205.53 29.944 204.774 29.9533 204.008 29.972C203.243 29.972 202.515 29.9813 201.824 30V29.44C202.459 29.4027 202.935 29.328 203.252 29.216C203.588 29.104 203.812 28.88 203.924 28.544C204.036 28.208 204.092 27.704 204.092 27.032V13.144C204.092 12.4533 204.036 11.9493 203.924 11.632C203.812 11.296 203.588 11.072 203.252 10.96C202.935 10.8293 202.459 10.7547 201.824 10.736V10.176C202.216 10.1947 202.73 10.2133 203.364 10.232C203.999 10.2507 204.68 10.26 205.408 10.26C206.062 10.26 206.706 10.2507 207.34 10.232C207.994 10.2133 208.535 10.1947 208.964 10.176ZM235.449 10.176V10.736C234.815 10.7547 234.329 10.848 233.993 11.016C233.676 11.184 233.461 11.4547 233.349 11.828C233.237 12.2013 233.181 12.7333 233.181 13.424V21.852C233.181 23.1587 233.097 24.2973 232.929 25.268C232.761 26.2387 232.463 27.0787 232.033 27.788C231.567 28.572 230.885 29.2067 229.989 29.692C229.093 30.1587 228.067 30.392 226.909 30.392C226.013 30.392 225.155 30.28 224.333 30.056C223.531 29.8507 222.821 29.4587 222.205 28.88C221.664 28.3573 221.235 27.8067 220.917 27.228C220.619 26.6493 220.413 25.94 220.301 25.1C220.189 24.26 220.133 23.2053 220.133 21.936V13.144C220.133 12.4533 220.077 11.9493 219.965 11.632C219.853 11.296 219.629 11.072 219.293 10.96C218.976 10.8293 218.5 10.7547 217.865 10.736V10.176C218.257 10.1947 218.771 10.2133 219.405 10.232C220.04 10.2507 220.721 10.26 221.449 10.26C222.103 10.26 222.747 10.2507 223.381 10.232C224.035 10.2133 224.576 10.1947 225.005 10.176V10.736C224.371 10.7547 223.885 10.8293 223.549 10.96C223.232 11.072 223.017 11.296 222.905 11.632C222.793 11.9493 222.737 12.4533 222.737 13.144V22.412C222.737 23.364 222.784 24.2693 222.877 25.128C222.971 25.968 223.157 26.7147 223.437 27.368C223.736 28.0027 224.184 28.5067 224.781 28.88C225.379 29.2347 226.172 29.412 227.161 29.412C228.58 29.412 229.672 29.104 230.437 28.488C231.221 27.8533 231.763 26.9853 232.061 25.884C232.379 24.7827 232.537 23.5413 232.537 22.16V13.424C232.537 12.7333 232.453 12.2013 232.285 11.828C232.136 11.4547 231.875 11.184 231.501 11.016C231.128 10.848 230.624 10.7547 229.989 10.736V10.176C230.325 10.1947 230.764 10.2133 231.305 10.232C231.865 10.2507 232.379 10.26 232.845 10.26C233.331 10.26 233.807 10.2507 234.273 10.232C234.759 10.2133 235.151 10.1947 235.449 10.176ZM237.371 10.176C237.763 10.1947 238.277 10.2133 238.911 10.232C239.546 10.2507 240.171 10.26 240.787 10.26C241.665 10.26 242.505 10.2507 243.307 10.232C244.11 10.2133 244.679 10.204 245.015 10.204C246.975 10.204 248.45 10.6147 249.439 11.436C250.429 12.2573 250.923 13.312 250.923 14.6C250.923 15.2533 250.783 15.8973 250.503 16.532C250.242 17.148 249.794 17.7173 249.159 18.24C248.543 18.744 247.713 19.1547 246.667 19.472V19.528C248.142 19.7147 249.29 20.0693 250.111 20.592C250.951 21.096 251.539 21.6933 251.875 22.384C252.211 23.0747 252.379 23.8027 252.379 24.568C252.379 25.632 252.109 26.5747 251.567 27.396C251.045 28.1987 250.279 28.8333 249.271 29.3C248.263 29.7667 247.059 30 245.659 30C245.249 30 244.633 29.9907 243.811 29.972C242.99 29.9347 242.001 29.916 240.843 29.916C240.19 29.916 239.546 29.9253 238.911 29.944C238.277 29.944 237.763 29.9627 237.371 30V29.44C238.006 29.4027 238.482 29.328 238.799 29.216C239.135 29.104 239.359 28.88 239.471 28.544C239.583 28.208 239.639 27.704 239.639 27.032V13.144C239.639 12.4533 239.583 11.9493 239.471 11.632C239.359 11.296 239.135 11.072 238.799 10.96C238.482 10.8293 238.006 10.7547 237.371 10.736V10.176ZM244.315 10.736C243.457 10.736 242.897 10.8947 242.635 11.212C242.374 11.5293 242.243 12.1733 242.243 13.144V27.032C242.243 27.6853 242.299 28.18 242.411 28.516C242.523 28.852 242.729 29.076 243.027 29.188C243.326 29.3 243.765 29.356 244.343 29.356C246.173 29.356 247.498 28.936 248.319 28.096C249.159 27.2373 249.579 26.024 249.579 24.456C249.579 23.0187 249.187 21.908 248.403 21.124C247.638 20.34 246.369 19.948 244.595 19.948H241.711C241.711 19.948 241.711 19.8733 241.711 19.724C241.711 19.556 241.711 19.472 241.711 19.472H244.119C245.221 19.472 246.07 19.2667 246.667 18.856C247.265 18.4267 247.675 17.8667 247.899 17.176C248.123 16.4667 248.235 15.7107 248.235 14.908C248.235 13.5267 247.927 12.4907 247.311 11.8C246.714 11.0907 245.715 10.736 244.315 10.736Z" fill="#093D5D"/>
<path d="M65.1974 53.8C64.0307 53.8 63.039 53.5083 62.2224 52.925C61.4224 52.3417 60.814 51.5917 60.3974 50.675C59.9807 49.7417 59.7724 48.7417 59.7724 47.675C59.7724 46.6083 59.989 45.55 60.4224 44.5C60.8557 43.45 61.5224 42.525 62.4224 41.725C63.3224 40.925 64.4557 40.3667 65.8224 40.05C66.0057 40.0167 66.189 39.9917 66.3724 39.975C66.5557 39.9417 66.7557 39.925 66.9724 39.925C67.339 39.925 67.6974 39.975 68.0474 40.075C68.3974 40.175 68.6974 40.3583 68.9474 40.625C69.1307 40.7917 69.2224 40.9083 69.2224 40.975C69.2224 41.0417 69.2057 41.075 69.1724 41.075C69.1224 41.075 69.0557 41.05 68.9724 41C68.9057 40.95 68.8307 40.9167 68.7474 40.9C68.4474 40.7833 68.114 40.725 67.7474 40.725C67.6474 40.725 67.5474 40.7333 67.4474 40.75C67.364 40.75 67.2807 40.7583 67.1974 40.775C66.214 41.0083 65.3307 41.4083 64.5474 41.975C63.7807 42.5417 63.1224 43.2167 62.5724 44C62.039 44.7833 61.6307 45.6083 61.3474 46.475C61.064 47.325 60.9224 48.15 60.9224 48.95C60.9224 49.7333 61.064 50.45 61.3474 51.1C61.6307 51.75 62.064 52.2667 62.6474 52.65C63.2474 53.0333 64.0057 53.225 64.9224 53.225C65.1724 53.225 65.439 53.2083 65.7224 53.175C66.0057 53.1417 66.3057 53.0917 66.6224 53.025C67.289 52.875 67.964 52.55 68.6474 52.05C69.3474 51.5667 70.014 50.9667 70.6474 50.25C71.2807 49.5167 71.839 48.725 72.3224 47.875C72.8224 47.0083 73.214 46.1167 73.4974 45.2C73.7974 44.2833 73.9474 43.3917 73.9474 42.525C73.9474 40.8583 73.4807 39.6167 72.5474 38.8C71.6307 37.9667 70.389 37.55 68.8224 37.55C67.789 37.55 66.7557 37.7417 65.7224 38.125C64.7057 38.4917 63.8307 38.9417 63.0974 39.475C62.3474 39.9917 61.664 40.6083 61.0474 41.325C60.4474 42.025 59.9557 42.775 59.5724 43.575C59.189 44.3583 58.9557 45.15 58.8724 45.95C58.8724 46.1333 58.8307 46.225 58.7474 46.225C58.6807 46.225 58.614 46.15 58.5474 46C58.4807 45.8333 58.4474 45.6667 58.4474 45.5C58.4474 44.5667 58.639 43.675 59.0224 42.825C59.4224 41.975 59.9557 41.1917 60.6224 40.475C61.289 39.7583 62.0474 39.1417 62.8974 38.625C63.7474 38.0917 64.6307 37.6833 65.5474 37.4C66.4807 37.1 67.389 36.95 68.2724 36.95C69.6057 36.9333 70.789 37.175 71.8224 37.675C72.8724 38.175 73.6974 38.9 74.2974 39.85C74.8974 40.8 75.1974 41.95 75.1974 43.3C75.1974 44.6167 74.9474 45.85 74.4474 47C73.964 48.15 73.314 49.1833 72.4974 50.1C71.6974 51 70.8057 51.75 69.8224 52.35C68.8557 52.95 67.889 53.3583 66.9224 53.575C66.6057 53.6583 66.3057 53.7167 66.0224 53.75C65.7557 53.7833 65.4807 53.8 65.1974 53.8ZM74.8743 52.325C74.7576 52.325 74.7243 52.2667 74.7743 52.15C74.8243 52.05 74.916 51.825 75.0493 51.475C75.1826 51.1083 75.3326 50.675 75.4993 50.175C75.6826 49.675 75.866 49.1583 76.0493 48.625C76.2326 48.0917 76.3993 47.5917 76.5493 47.125C76.716 46.6583 76.8493 46.2917 76.9493 46.025C76.9826 45.925 77.016 45.7833 77.0493 45.6C77.0826 45.4 77.1493 45.225 77.2493 45.075C77.366 44.9083 77.5576 44.825 77.8243 44.825C78.3243 44.825 78.5743 44.9417 78.5743 45.175C78.5743 45.2583 78.5326 45.4 78.4493 45.6C78.2493 46.05 78.0326 46.5667 77.7993 47.15C77.566 47.7333 77.3576 48.2833 77.1743 48.8C76.991 49.3167 76.8493 49.7167 76.7493 50C76.916 49.7667 77.1826 49.4333 77.5493 49C77.9326 48.5667 78.3576 48.1 78.8243 47.6C79.291 47.1 79.7743 46.6167 80.2743 46.15C80.791 45.6833 81.266 45.3083 81.6993 45.025C82.1493 44.725 82.5326 44.575 82.8493 44.575C83.2493 44.575 83.4493 44.7917 83.4493 45.225C83.4493 45.375 83.4077 45.6 83.3243 45.9C83.1743 46.3167 82.9827 46.725 82.7493 47.125C82.516 47.5083 82.3077 47.9167 82.1243 48.35C81.8077 49.1333 81.6243 49.7667 81.5743 50.25C81.5577 50.3167 81.5493 50.3833 81.5493 50.45C81.5493 50.5 81.5493 50.5583 81.5493 50.625C81.5493 51.2917 81.7743 51.625 82.2243 51.625C82.4743 51.625 82.8077 51.475 83.2243 51.175C83.641 50.875 84.066 50.5167 84.4993 50.1C84.9493 49.6833 85.3493 49.2833 85.6993 48.9C86.0493 48.5 86.291 48.2 86.4243 48C86.4743 47.95 86.5243 47.925 86.5743 47.925C86.641 47.925 86.691 47.95 86.7243 48C86.7743 48.05 86.7827 48.1167 86.7493 48.2C86.5993 48.4833 86.341 48.8417 85.9743 49.275C85.6243 49.6917 85.2327 50.1167 84.7993 50.55C84.366 50.9667 83.941 51.325 83.5243 51.625C83.2743 51.7917 82.966 51.9417 82.5993 52.075C82.2327 52.2083 81.866 52.2667 81.4993 52.25C81.0327 52.2 80.6993 52.0417 80.4993 51.775C80.2993 51.4917 80.1993 51.1583 80.1993 50.775C80.1993 50.325 80.2827 49.85 80.4493 49.35C80.6327 48.8333 80.8326 48.35 81.0493 47.9C81.266 47.45 81.441 47.1083 81.5743 46.875C81.7077 46.6083 81.7743 46.4 81.7743 46.25C81.7743 46.1167 81.716 46.05 81.5993 46.05C81.4827 46.05 81.3077 46.125 81.0743 46.275C80.841 46.425 80.5243 46.6833 80.1243 47.05C79.7576 47.3667 79.366 47.7833 78.9493 48.3C78.5326 48.8 78.1243 49.3167 77.7243 49.85C77.341 50.3833 76.9993 50.8417 76.6993 51.225C76.416 51.6083 76.216 51.8333 76.0993 51.9C76.016 51.95 75.8243 52.0333 75.5243 52.15C75.241 52.2667 75.0243 52.325 74.8743 52.325ZM88.3067 52.375C87.5567 52.375 86.9067 52.2 86.3567 51.85C85.8067 51.5 85.5317 50.9667 85.5317 50.25C85.5317 49.8667 85.6484 49.4 85.8817 48.85C86.0484 48.4667 86.3567 48.025 86.8067 47.525C87.2567 47.025 87.7817 46.5417 88.3817 46.075C88.9817 45.5917 89.5901 45.2 90.2067 44.9C90.8234 44.5833 91.3817 44.425 91.8817 44.425C92.0651 44.425 92.2317 44.45 92.3817 44.5C92.6651 44.6 92.8567 44.7583 92.9567 44.975C93.0734 45.1917 93.1317 45.4167 93.1317 45.65C93.1317 45.8667 93.0984 46.075 93.0317 46.275C92.9651 46.475 92.8817 46.65 92.7817 46.8C92.4817 47.25 92.0484 47.65 91.4817 48C90.9317 48.35 90.3651 48.625 89.7817 48.825C89.2151 49.025 88.7484 49.1417 88.3817 49.175H88.3317C88.1151 49.175 88.0067 49.1083 88.0067 48.975C88.0067 48.8917 88.0734 48.85 88.2067 48.85C88.6067 48.8167 89.1067 48.6333 89.7067 48.3C90.3234 47.95 90.8651 47.5917 91.3317 47.225C91.5317 47.0583 91.7651 46.825 92.0317 46.525C92.3151 46.225 92.4567 45.9333 92.4567 45.65C92.4567 45.35 92.3151 45.2 92.0317 45.2C91.8817 45.2 91.7234 45.2333 91.5567 45.3C91.4067 45.3667 91.2817 45.4167 91.1817 45.45C90.6984 45.6833 90.1651 46.05 89.5817 46.55C88.9984 47.0333 88.4651 47.5833 87.9817 48.2C87.5151 48.8 87.1901 49.4083 87.0067 50.025C86.9567 50.1583 86.9234 50.2917 86.9067 50.425C86.8901 50.5417 86.8817 50.6583 86.8817 50.775C86.8817 51.175 87.0067 51.4583 87.2567 51.625C87.5234 51.7917 87.8401 51.875 88.2067 51.875C88.7567 51.875 89.3234 51.7583 89.9067 51.525C90.4901 51.275 91.0567 50.9583 91.6067 50.575C92.1567 50.1917 92.6567 49.7833 93.1067 49.35C93.5734 48.9 93.9651 48.4667 94.2817 48.05C94.3317 47.9833 94.3901 47.95 94.4567 47.95C94.5234 47.9333 94.5651 47.9417 94.5817 47.975C94.6484 47.9917 94.6817 48.0417 94.6817 48.125C94.6817 48.1917 94.6651 48.2583 94.6317 48.325C94.1651 48.975 93.5984 49.6083 92.9317 50.225C92.2817 50.8417 91.5567 51.3583 90.7567 51.775C89.9734 52.175 89.1567 52.375 88.3067 52.375ZM99.5089 53.925C99.1422 53.925 98.8422 53.8083 98.6089 53.575C98.3756 53.3417 98.2589 53.0167 98.2589 52.6C98.2589 52.3667 98.3089 52.1083 98.4089 51.825C98.4922 51.525 98.6422 51.2083 98.8589 50.875C99.2422 50.275 99.7339 49.6083 100.334 48.875C100.951 48.125 101.601 47.3833 102.284 46.65C102.967 45.9167 103.609 45.25 104.209 44.65C104.826 44.0333 105.317 43.5583 105.684 43.225C105.851 42.725 106.009 42.2083 106.159 41.675C106.326 41.1417 106.492 40.5917 106.659 40.025C106.192 40.4583 105.659 40.7833 105.059 41C104.476 41.2167 103.926 41.3417 103.409 41.375H103.384C103.217 41.375 103.134 41.3167 103.134 41.2C103.134 41.0667 103.234 40.9917 103.434 40.975C103.917 40.925 104.417 40.7417 104.934 40.425C105.451 40.0917 105.926 39.675 106.359 39.175C106.809 38.6583 107.151 38.1083 107.384 37.525C107.417 37.425 107.526 37.35 107.709 37.3C107.909 37.25 108.117 37.225 108.334 37.225C108.517 37.225 108.676 37.25 108.809 37.3C108.959 37.3333 109.017 37.4083 108.984 37.525C108.684 38.2917 108.392 39.0333 108.109 39.75C107.826 40.45 107.551 41.1333 107.284 41.8C108.267 40.9667 109.184 40.275 110.034 39.725C110.901 39.1583 111.601 38.8583 112.134 38.825C113.084 38.775 113.826 38.9333 114.359 39.3C114.909 39.6667 115.292 40.1583 115.509 40.775C115.742 41.375 115.859 42.0167 115.859 42.7C115.859 42.8667 115.851 43.025 115.834 43.175C115.834 43.325 115.826 43.475 115.809 43.625C115.726 44.3917 115.559 45.2667 115.309 46.25C115.059 47.2333 114.792 48.15 114.509 49C114.476 49.0833 114.426 49.2333 114.359 49.45C114.292 49.65 114.284 49.75 114.334 49.75C114.351 49.75 114.434 49.6417 114.584 49.425C115.001 48.7417 115.401 48.075 115.784 47.425C116.184 46.7583 116.609 46.075 117.059 45.375C117.726 44.3417 118.451 43.3 119.234 42.25C120.034 41.2 120.834 40.2583 121.634 39.425C121.951 39.0917 122.276 38.8417 122.609 38.675C122.959 38.5083 123.284 38.425 123.584 38.425C123.917 38.425 124.192 38.5417 124.409 38.775C124.642 38.9917 124.759 39.3333 124.759 39.8C124.759 39.9167 124.742 40.05 124.709 40.2C124.692 40.3333 124.667 40.4833 124.634 40.65C124.434 41.45 124.201 42.1833 123.934 42.85C123.667 43.5167 123.401 44.175 123.134 44.825C122.867 45.4583 122.626 46.125 122.409 46.825C122.209 47.525 122.067 48.3 121.984 49.15C121.967 49.3 121.951 49.4417 121.934 49.575C121.934 49.7083 121.934 49.8333 121.934 49.95C121.934 50.5167 122.017 50.9333 122.184 51.2C122.351 51.45 122.567 51.575 122.834 51.575C123.151 51.575 123.517 51.4417 123.934 51.175C124.367 50.8917 124.801 50.55 125.234 50.15C125.667 49.7333 126.059 49.3333 126.409 48.95C126.759 48.55 127.017 48.2333 127.184 48C127.217 47.95 127.267 47.925 127.334 47.925C127.401 47.925 127.459 47.95 127.509 48C127.559 48.05 127.559 48.1167 127.509 48.2C127.292 48.5333 126.984 48.925 126.584 49.375C126.201 49.8083 125.792 50.2333 125.359 50.65C124.942 51.05 124.567 51.375 124.234 51.625C123.984 51.8083 123.692 51.9583 123.359 52.075C123.042 52.1917 122.726 52.25 122.409 52.25C122.042 52.25 121.709 52.1583 121.409 51.975C121.109 51.7917 120.901 51.475 120.784 51.025C120.734 50.8583 120.701 50.6833 120.684 50.5C120.667 50.3167 120.659 50.125 120.659 49.925C120.659 49.225 120.759 48.45 120.959 47.6C121.159 46.7333 121.409 45.875 121.709 45.025C122.009 44.1583 122.292 43.375 122.559 42.675C122.842 41.9583 123.059 41.3917 123.209 40.975C123.326 40.7417 123.384 40.525 123.384 40.325C123.384 39.975 123.234 39.8 122.934 39.8C122.684 39.8 122.392 39.9417 122.059 40.225C121.576 40.6417 121.042 41.1833 120.459 41.85C119.892 42.5167 119.309 43.25 118.709 44.05C118.126 44.85 117.551 45.675 116.984 46.525C116.434 47.3583 115.926 48.1667 115.459 48.95C115.009 49.7167 114.642 50.4 114.359 51C114.242 51.25 114.109 51.375 113.959 51.375C113.842 51.375 113.726 51.3 113.609 51.15C113.509 51 113.426 50.8417 113.359 50.675C113.309 50.4917 113.301 50.3667 113.334 50.3C113.551 49.7667 113.751 49.1167 113.934 48.35C114.117 47.5667 114.267 46.7417 114.384 45.875C114.501 44.9917 114.559 44.15 114.559 43.35C114.559 42.2833 114.426 41.3833 114.159 40.65C113.892 39.9 113.426 39.525 112.759 39.525C112.326 39.525 111.776 39.7083 111.109 40.075C110.442 40.4417 109.717 40.9333 108.934 41.55C108.167 42.1667 107.376 42.85 106.559 43.6C106.409 43.9667 106.184 44.5 105.884 45.2C105.601 45.9 105.259 46.675 104.859 47.525C104.476 48.375 104.042 49.225 103.559 50.075C103.092 50.9083 102.609 51.6417 102.109 52.275C101.659 52.8417 101.209 53.2583 100.759 53.525C100.309 53.7917 99.8922 53.925 99.5089 53.925ZM99.6339 53.05C100.067 53.05 100.509 52.8167 100.959 52.35C101.426 51.9 101.884 51.325 102.334 50.625C102.801 49.9083 103.226 49.1667 103.609 48.4C103.992 47.6333 104.317 46.925 104.584 46.275C104.867 45.625 105.067 45.1417 105.184 44.825C104.717 45.275 104.226 45.775 103.709 46.325C103.192 46.8583 102.684 47.4083 102.184 47.975C101.701 48.525 101.259 49.0417 100.859 49.525C100.459 50.0083 100.142 50.4083 99.9089 50.725C99.6422 51.0917 99.4422 51.425 99.3089 51.725C99.1922 52.0083 99.1339 52.2583 99.1339 52.475C99.1339 52.8583 99.3006 53.05 99.6339 53.05ZM128.802 52.275C128.335 52.275 127.927 52.1667 127.577 51.95C126.994 51.6 126.702 50.9667 126.702 50.05C126.702 49.6667 126.769 49.225 126.902 48.725C127.019 48.3083 127.227 47.8583 127.527 47.375C127.827 46.875 128.177 46.4 128.577 45.95C128.994 45.5 129.444 45.1333 129.927 44.85C130.41 44.5667 130.894 44.425 131.377 44.425C131.577 44.425 131.752 44.45 131.902 44.5C132.102 44.5667 132.269 44.6917 132.402 44.875C132.552 45.0417 132.627 45.2583 132.627 45.525C132.627 45.8083 132.552 45.9667 132.402 46C132.269 46.0333 132.202 46 132.202 45.9C132.202 45.8667 132.202 45.8333 132.202 45.8C132.219 45.7667 132.227 45.7417 132.227 45.725C132.227 45.5917 132.185 45.475 132.102 45.375C132.035 45.2583 131.902 45.2 131.702 45.2C131.435 45.2 131.102 45.3417 130.702 45.625C130.319 45.9083 129.919 46.2917 129.502 46.775C129.102 47.2417 128.744 47.7583 128.427 48.325C128.127 48.8917 127.927 49.4583 127.827 50.025C127.81 50.1083 127.794 50.1917 127.777 50.275C127.777 50.3417 127.777 50.4167 127.777 50.5C127.777 50.8833 127.86 51.2083 128.027 51.475C128.21 51.725 128.494 51.85 128.877 51.85C129.344 51.85 129.794 51.675 130.227 51.325C130.66 50.9583 131.044 50.525 131.377 50.025C131.727 49.525 131.985 49.0833 132.152 48.7C132.285 48.4 132.377 48.1417 132.427 47.925C132.477 47.7083 132.502 47.525 132.502 47.375C132.502 47.2417 132.485 47.125 132.452 47.025C132.435 46.925 132.41 46.8417 132.377 46.775C132.344 46.675 132.327 46.6 132.327 46.55C132.327 46.4167 132.377 46.3083 132.477 46.225C132.594 46.1417 132.71 46.1 132.827 46.1C132.927 46.1 133.035 46.1333 133.152 46.2C133.285 46.2333 133.469 46.2583 133.702 46.275C133.935 46.2917 134.185 46.3 134.452 46.3C134.735 46.3 135.019 46.2917 135.302 46.275C135.602 46.2583 135.86 46.225 136.077 46.175C136.11 46.1583 136.16 46.15 136.227 46.15C136.344 46.15 136.402 46.1833 136.402 46.25C136.402 46.3167 136.344 46.375 136.227 46.425C135.644 46.6917 135.119 46.8333 134.652 46.85C134.202 46.8667 133.81 46.875 133.477 46.875C133.51 47.2917 133.419 47.7417 133.202 48.225C132.985 48.6917 132.76 49.1083 132.527 49.475C132.244 49.8917 131.919 50.3167 131.552 50.75C131.185 51.1833 130.777 51.55 130.327 51.85C129.877 52.1333 129.369 52.275 128.802 52.275ZM138.917 52.3C138.633 52.3 138.383 52.2333 138.167 52.1C137.95 51.9833 137.8 51.75 137.717 51.4C137.667 51.2167 137.642 51.0333 137.642 50.85C137.642 50.35 137.767 49.8667 138.017 49.4C138.283 48.9167 138.592 48.475 138.942 48.075C139.292 47.6583 139.592 47.3083 139.842 47.025C139.975 46.8917 140.125 46.7167 140.292 46.5C140.475 46.2833 140.567 46.0667 140.567 45.85C140.567 45.7167 140.5 45.5917 140.367 45.475C140.233 45.3417 139.992 45.25 139.642 45.2C139.442 45.1667 139.25 45.1417 139.067 45.125C138.9 45.0917 138.725 45.075 138.542 45.075C138.075 45.7083 137.617 46.35 137.167 47C136.733 47.6333 136.267 48.2583 135.767 48.875C135.65 48.9917 135.55 49.05 135.467 49.05C135.367 49.05 135.317 49 135.317 48.9C135.317 48.8 135.367 48.7 135.467 48.6C136.367 47.5 137.142 46.325 137.792 45.075C137.708 45.075 137.583 45.075 137.417 45.075C137.25 45.0583 137.117 45.0417 137.017 45.025C136.9 44.9917 136.808 44.9417 136.742 44.875C136.675 44.8083 136.642 44.7417 136.642 44.675C136.642 44.575 136.683 44.5167 136.767 44.5C136.983 44.4333 137.217 44.3333 137.467 44.2C137.717 44.0667 137.95 43.8917 138.167 43.675C138.4 43.4417 138.617 43.2 138.817 42.95C139.017 42.6833 139.175 42.4833 139.292 42.35C139.408 42.2667 139.533 42.225 139.667 42.225C139.75 42.225 139.825 42.25 139.892 42.3C139.975 42.35 140.017 42.425 140.017 42.525C140.017 42.6417 139.967 42.7917 139.867 42.975C139.717 43.2083 139.55 43.4667 139.367 43.75C139.2 44.0333 139.042 44.2917 138.892 44.525C139.192 44.5417 139.492 44.5583 139.792 44.575C140.092 44.5917 140.4 44.6 140.717 44.6C140.883 44.6 141.042 44.6 141.192 44.6C141.358 44.5833 141.525 44.575 141.692 44.575C142.192 44.575 142.442 44.7 142.442 44.95C142.442 45.1167 142.35 45.325 142.167 45.575C142 45.8083 141.792 46.0667 141.542 46.35C140.975 47 140.492 47.6833 140.092 48.4C139.692 49.1167 139.425 49.6667 139.292 50.05C139.158 50.45 139.092 50.75 139.092 50.95C139.092 51.35 139.25 51.55 139.567 51.55C139.85 51.55 140.192 51.4083 140.592 51.125C141.008 50.8417 141.433 50.5 141.867 50.1C142.3 49.6833 142.692 49.2833 143.042 48.9C143.392 48.5 143.642 48.2 143.792 48C143.825 47.95 143.875 47.925 143.942 47.925C144.008 47.925 144.067 47.9583 144.117 48.025C144.167 48.075 144.167 48.1417 144.117 48.225C143.933 48.5083 143.667 48.8667 143.317 49.3C142.967 49.7167 142.575 50.1333 142.142 50.55C141.708 50.9667 141.283 51.325 140.867 51.625C140.65 51.7917 140.35 51.9417 139.967 52.075C139.6 52.225 139.25 52.3 138.917 52.3ZM145.753 52.375C145.003 52.375 144.353 52.2 143.803 51.85C143.253 51.5 142.978 50.9667 142.978 50.25C142.978 49.8667 143.095 49.4 143.328 48.85C143.495 48.4667 143.803 48.025 144.253 47.525C144.703 47.025 145.228 46.5417 145.828 46.075C146.428 45.5917 147.036 45.2 147.653 44.9C148.27 44.5833 148.828 44.425 149.328 44.425C149.511 44.425 149.678 44.45 149.828 44.5C150.111 44.6 150.303 44.7583 150.403 44.975C150.52 45.1917 150.578 45.4167 150.578 45.65C150.578 45.8667 150.545 46.075 150.478 46.275C150.411 46.475 150.328 46.65 150.228 46.8C149.928 47.25 149.495 47.65 148.928 48C148.378 48.35 147.811 48.625 147.228 48.825C146.661 49.025 146.195 49.1417 145.828 49.175H145.778C145.561 49.175 145.453 49.1083 145.453 48.975C145.453 48.8917 145.52 48.85 145.653 48.85C146.053 48.8167 146.553 48.6333 147.153 48.3C147.77 47.95 148.311 47.5917 148.778 47.225C148.978 47.0583 149.211 46.825 149.478 46.525C149.761 46.225 149.903 45.9333 149.903 45.65C149.903 45.35 149.761 45.2 149.478 45.2C149.328 45.2 149.17 45.2333 149.003 45.3C148.853 45.3667 148.728 45.4167 148.628 45.45C148.145 45.6833 147.611 46.05 147.028 46.55C146.445 47.0333 145.911 47.5833 145.428 48.2C144.961 48.8 144.636 49.4083 144.453 50.025C144.403 50.1583 144.37 50.2917 144.353 50.425C144.336 50.5417 144.328 50.6583 144.328 50.775C144.328 51.175 144.453 51.4583 144.703 51.625C144.97 51.7917 145.286 51.875 145.653 51.875C146.203 51.875 146.77 51.7583 147.353 51.525C147.936 51.275 148.503 50.9583 149.053 50.575C149.603 50.1917 150.103 49.7833 150.553 49.35C151.02 48.9 151.411 48.4667 151.728 48.05C151.778 47.9833 151.836 47.95 151.903 47.95C151.97 47.9333 152.011 47.9417 152.028 47.975C152.095 47.9917 152.128 48.0417 152.128 48.125C152.128 48.1917 152.111 48.2583 152.078 48.325C151.611 48.975 151.045 49.6083 150.378 50.225C149.728 50.8417 149.003 51.3583 148.203 51.775C147.42 52.175 146.603 52.375 145.753 52.375ZM161.205 53.15C160.339 53.15 159.539 53 158.805 52.7C158.089 52.4167 157.514 51.975 157.08 51.375C156.664 50.7583 156.455 49.975 156.455 49.025C156.455 48.4917 156.53 47.9167 156.68 47.3C156.914 46.3167 157.297 45.3333 157.83 44.35C158.38 43.3667 159.03 42.4417 159.78 41.575C160.547 40.7083 161.38 39.9417 162.28 39.275C163.18 38.5917 164.105 38.0583 165.055 37.675C166.022 37.275 166.98 37.075 167.93 37.075C168.214 37.075 168.505 37.1 168.805 37.15C169.472 37.2667 169.964 37.5167 170.28 37.9C170.614 38.2667 170.78 38.6917 170.78 39.175C170.78 39.7417 170.597 40.3083 170.23 40.875C169.864 41.4417 169.38 41.9833 168.78 42.5C168.197 43 167.555 43.45 166.855 43.85C166.172 44.25 165.497 44.575 164.83 44.825C164.164 45.075 163.572 45.2167 163.055 45.25C162.739 45.2667 162.58 45.175 162.58 44.975C162.58 44.875 162.63 44.775 162.73 44.675C162.847 44.5583 163.005 44.4917 163.205 44.475C164.505 44.3583 165.714 43.9667 166.83 43.3C167.964 42.6167 168.83 41.6917 169.43 40.525C169.564 40.275 169.664 40.025 169.73 39.775C169.814 39.5083 169.855 39.2583 169.855 39.025C169.855 38.6583 169.747 38.35 169.53 38.1C169.33 37.8333 168.972 37.7 168.455 37.7C167.889 37.7 167.222 37.875 166.455 38.225C165.689 38.5583 164.88 39.0333 164.03 39.65C163.197 40.2667 162.372 41 161.555 41.85C160.755 42.6833 160.03 43.6 159.38 44.6C158.747 45.5833 158.255 46.625 157.905 47.725C157.689 48.3917 157.58 49.0083 157.58 49.575C157.58 50.5917 157.93 51.3417 158.63 51.825C159.33 52.2917 160.239 52.525 161.355 52.525C162.322 52.525 163.38 52.3583 164.53 52.025C165.697 51.6917 166.83 51.1833 167.93 50.5C169.03 49.8 169.955 48.9167 170.705 47.85C170.755 47.7833 170.814 47.75 170.88 47.75C170.947 47.75 171.005 47.7833 171.055 47.85C171.122 47.9167 171.13 47.9833 171.08 48.05C170.214 49.25 169.214 50.225 168.08 50.975C166.964 51.725 165.805 52.275 164.605 52.625C163.405 52.975 162.272 53.15 161.205 53.15ZM170.485 52.325C170.351 52.325 170.318 52.2667 170.385 52.15C170.418 52.05 170.501 51.8 170.635 51.4C170.785 51 170.96 50.5167 171.16 49.95C171.36 49.3833 171.568 48.8083 171.785 48.225C172.001 47.625 172.201 47.0917 172.385 46.625C172.268 46.775 172.085 46.9917 171.835 47.275C171.601 47.5583 171.351 47.8583 171.085 48.175C170.818 48.4917 170.568 48.7667 170.335 49C170.285 49.05 170.251 49.075 170.235 49.075C170.185 49.075 170.16 49.025 170.16 48.925C170.16 48.725 170.21 48.5417 170.31 48.375C170.676 47.9083 171.026 47.475 171.36 47.075C171.71 46.6583 172.026 46.2667 172.31 45.9C172.143 45.8 172.06 45.675 172.06 45.525C172.06 45.2917 172.176 45.175 172.41 45.175C172.51 45.175 172.585 45.1917 172.635 45.225C172.651 45.2417 172.668 45.25 172.685 45.25C172.701 45.25 172.718 45.2667 172.735 45.3C172.818 45.1833 172.885 45.075 172.935 44.975C173.001 44.875 173.06 44.7667 173.11 44.65C173.176 44.5 173.31 44.2167 173.51 43.8C173.726 43.3667 173.993 42.8583 174.31 42.275C174.626 41.6917 174.985 41.0917 175.385 40.475C175.801 39.8417 176.243 39.2583 176.71 38.725C177.193 38.175 177.685 37.7333 178.185 37.4C178.701 37.0667 179.226 36.9 179.76 36.9C179.826 36.9 179.893 36.9083 179.96 36.925C180.026 36.925 180.093 36.9333 180.16 36.95C180.576 37.0333 180.868 37.1833 181.035 37.4C181.201 37.6 181.285 37.8417 181.285 38.125C181.285 38.325 181.243 38.5417 181.16 38.775C181.093 38.9917 180.993 39.2083 180.86 39.425C180.526 40.0083 180.085 40.6 179.535 41.2C178.985 41.7833 178.368 42.3667 177.685 42.95C177.018 43.5167 176.343 44.075 175.66 44.625C174.993 45.1583 174.368 45.6667 173.785 46.15C173.385 47 173.076 47.7583 172.86 48.425C172.643 49.075 172.476 49.6 172.36 50C172.543 49.7667 172.818 49.4333 173.185 49C173.551 48.5667 173.968 48.1 174.435 47.6C174.901 47.1 175.385 46.625 175.885 46.175C176.385 45.7083 176.86 45.3333 177.31 45.05C177.76 44.75 178.143 44.6 178.46 44.6C178.86 44.6 179.06 44.8083 179.06 45.225C179.06 45.625 178.918 46.0667 178.635 46.55C178.351 47.0333 178.118 47.4417 177.935 47.775C177.701 48.2583 177.51 48.725 177.36 49.175C177.226 49.6083 177.143 49.9667 177.11 50.25C177.093 50.3167 177.085 50.3833 177.085 50.45C177.085 50.5 177.085 50.5583 177.085 50.625C177.085 51.2917 177.318 51.625 177.785 51.625C178.035 51.625 178.368 51.475 178.785 51.175C179.201 50.875 179.626 50.5167 180.06 50.1C180.493 49.6833 180.885 49.2833 181.235 48.9C181.601 48.5 181.851 48.2 181.985 48C182.035 47.95 182.093 47.925 182.16 47.925C182.226 47.925 182.276 47.95 182.31 48C182.343 48.05 182.343 48.1167 182.31 48.2C182.143 48.4833 181.885 48.8417 181.535 49.275C181.185 49.6917 180.793 50.1167 180.36 50.55C179.926 50.9667 179.501 51.325 179.085 51.625C178.868 51.7917 178.585 51.9333 178.235 52.05C177.901 52.1833 177.568 52.25 177.235 52.25C176.968 52.25 176.71 52.1833 176.46 52.05C176.21 51.9167 176.026 51.6667 175.91 51.3C175.86 51.15 175.835 50.9417 175.835 50.675C175.835 50.5917 175.835 50.5083 175.835 50.425C175.835 50.325 175.843 50.225 175.86 50.125C175.926 49.5917 176.101 49.0333 176.385 48.45C176.685 47.85 176.96 47.3167 177.21 46.85C177.276 46.7167 177.326 46.6 177.36 46.5C177.41 46.4 177.435 46.3167 177.435 46.25C177.435 46.1167 177.376 46.05 177.26 46.05C177.143 46.05 176.96 46.125 176.71 46.275C176.46 46.425 176.126 46.6833 175.71 47.05C175.343 47.3667 174.951 47.7833 174.535 48.3C174.135 48.8 173.735 49.3167 173.335 49.85C172.951 50.3833 172.61 50.8417 172.31 51.225C172.026 51.6083 171.826 51.8333 171.71 51.9C171.626 51.95 171.435 52.0333 171.135 52.15C170.835 52.2667 170.618 52.325 170.485 52.325ZM174.26 45.025C174.926 44.575 175.651 44.0167 176.435 43.35C177.218 42.6667 177.951 41.9417 178.635 41.175C179.335 40.3917 179.868 39.65 180.235 38.95C180.435 38.5667 180.535 38.25 180.535 38C180.535 37.7167 180.41 37.575 180.16 37.575C180.043 37.575 179.91 37.6083 179.76 37.675C179.61 37.725 179.435 37.825 179.235 37.975C178.118 38.8417 177.176 39.875 176.41 41.075C175.643 42.2583 174.926 43.575 174.26 45.025ZM188.637 52.25C188.353 52.25 188.087 52.1833 187.837 52.05C187.603 51.9167 187.428 51.6667 187.312 51.3C187.262 51.15 187.237 50.9417 187.237 50.675C187.237 50.3083 187.287 49.9 187.387 49.45C187.487 49 187.595 48.6167 187.712 48.3C187.628 48.3333 187.47 48.4833 187.237 48.75C187.02 49 186.745 49.3083 186.412 49.675C186.095 50.025 185.737 50.3833 185.337 50.75C184.953 51.1 184.553 51.3917 184.137 51.625C183.72 51.8583 183.312 51.975 182.912 51.975C182.645 51.975 182.362 51.9 182.062 51.75C181.762 51.5833 181.52 51.375 181.337 51.125C181.087 50.7917 180.962 50.45 180.962 50.1C180.962 49.65 181.112 49.1833 181.412 48.7C181.728 48.2167 182.128 47.75 182.612 47.3C183.112 46.8333 183.637 46.4167 184.187 46.05C184.753 45.6667 185.287 45.35 185.787 45.1C186.303 44.8333 186.72 44.6583 187.037 44.575C187.37 44.475 187.745 44.425 188.162 44.425C188.395 44.425 188.637 44.4583 188.887 44.525C189.137 44.575 189.345 44.6667 189.512 44.8C189.645 44.8667 189.753 44.9583 189.837 45.075C189.92 45.1917 189.962 45.3167 189.962 45.45C189.962 45.5833 189.903 45.625 189.787 45.575C189.653 45.375 189.47 45.25 189.237 45.2C189.02 45.1333 188.795 45.1 188.562 45.1C187.895 45.1 187.162 45.3167 186.362 45.75C185.562 46.1833 184.845 46.6917 184.212 47.275C184.012 47.4417 183.737 47.7333 183.387 48.15C183.053 48.55 182.745 48.9917 182.462 49.475C182.178 49.9583 182.037 50.4 182.037 50.8C182.037 51.0167 182.095 51.2083 182.212 51.375C182.278 51.4917 182.387 51.55 182.537 51.55C182.77 51.55 183.078 51.425 183.462 51.175C183.862 50.925 184.27 50.625 184.687 50.275C185.103 49.9083 185.478 49.5583 185.812 49.225C186.162 48.8917 186.412 48.65 186.562 48.5C186.645 48.4167 186.803 48.25 187.037 48C187.287 47.7333 187.553 47.45 187.837 47.15C188.12 46.85 188.37 46.5917 188.587 46.375C188.82 46.1583 188.97 46.05 189.037 46.05C189.12 46.05 189.253 46.075 189.437 46.125C189.637 46.1583 189.803 46.2167 189.937 46.3C190.07 46.3833 190.095 46.4917 190.012 46.625C189.578 47.2583 189.228 47.925 188.962 48.625C188.712 49.3083 188.562 49.85 188.512 50.25C188.495 50.3167 188.487 50.3833 188.487 50.45C188.487 50.5 188.487 50.5583 188.487 50.625C188.487 51.2917 188.72 51.625 189.187 51.625C189.437 51.625 189.77 51.475 190.187 51.175C190.603 50.875 191.028 50.5167 191.462 50.1C191.895 49.6833 192.287 49.2833 192.637 48.9C193.003 48.5 193.253 48.2 193.387 48C193.437 47.95 193.487 47.925 193.537 47.925C193.603 47.925 193.662 47.9583 193.712 48.025C193.762 48.075 193.762 48.1417 193.712 48.225C193.528 48.525 193.262 48.8833 192.912 49.3C192.562 49.7167 192.17 50.1333 191.737 50.55C191.303 50.9667 190.878 51.325 190.462 51.625C190.245 51.7917 189.97 51.9333 189.637 52.05C189.303 52.1833 188.97 52.25 188.637 52.25ZM188.79 60.55C188.59 60.55 188.49 60.4667 188.49 60.3C188.49 60.2333 188.515 60.1417 188.565 60.025C188.765 59.5917 189.048 58.9417 189.415 58.075C189.781 57.225 190.19 56.2417 190.64 55.125C191.073 54.025 191.515 52.8917 191.965 51.725C192.365 50.6917 192.748 49.6833 193.115 48.7C193.498 47.7167 193.815 46.8333 194.065 46.05C194.315 45.25 194.44 44.6333 194.44 44.2C194.44 44.0667 194.531 43.9917 194.715 43.975C194.898 43.9417 195.073 43.925 195.24 43.925C195.79 43.925 196.065 44.1083 196.065 44.475C196.065 44.775 195.898 45.1667 195.565 45.65C195.265 46.1333 195.006 46.6333 194.79 47.15C194.573 47.65 194.356 48.1667 194.14 48.7C194.54 48.1667 194.915 47.6417 195.265 47.125C195.615 46.6083 196.023 46.1667 196.49 45.8C196.856 45.5167 197.215 45.2917 197.565 45.125C197.931 44.9417 198.323 44.85 198.74 44.85C199.173 44.85 199.606 44.9583 200.04 45.175C200.473 45.375 200.723 45.7 200.79 46.15C200.806 46.2 200.815 46.2583 200.815 46.325C200.815 46.375 200.815 46.425 200.815 46.475C200.815 47.0583 200.64 47.6333 200.29 48.2C199.956 48.75 199.556 49.2417 199.09 49.675C198.623 50.1083 198.19 50.4583 197.79 50.725C197.456 50.925 197.048 51.1417 196.565 51.375C196.098 51.6083 195.598 51.8083 195.065 51.975C194.548 52.1417 194.048 52.225 193.565 52.225C193.265 52.225 193.015 52.1917 192.815 52.125C192.598 52.625 192.348 53.2667 192.065 54.05C191.781 54.85 191.515 55.6333 191.265 56.4C191.148 56.7333 191.106 57 191.14 57.2C191.173 57.4167 191.131 57.6833 191.015 58C190.915 58.3333 190.806 58.65 190.69 58.95C190.573 59.2667 190.44 59.5667 190.29 59.85C190.256 59.9167 190.156 60.0083 189.99 60.125C189.806 60.2417 189.606 60.3417 189.39 60.425C189.156 60.5083 188.956 60.55 188.79 60.55ZM193.015 51.725C193.548 51.725 194.106 51.6 194.69 51.35C195.273 51.1 195.848 50.7667 196.415 50.35C196.981 49.9333 197.49 49.4833 197.94 49C198.406 48.5 198.781 48.0167 199.065 47.55C199.398 47.0167 199.565 46.525 199.565 46.075C199.565 45.5583 199.34 45.3 198.89 45.3C198.773 45.3 198.631 45.325 198.465 45.375C198.298 45.4083 198.106 45.4833 197.89 45.6C197.006 46.0667 196.281 46.6167 195.715 47.25C195.148 47.8667 194.665 48.55 194.265 49.3C193.865 50.05 193.448 50.8583 193.015 51.725ZM203.443 52.25C203.143 52.25 202.868 52.1833 202.618 52.05C202.385 51.9167 202.21 51.6667 202.093 51.3C202.077 51.25 202.06 51.2 202.043 51.15C202.043 51.1 202.043 51.0417 202.043 50.975C202.043 50.6417 202.118 50.225 202.268 49.725C202.418 49.225 202.602 48.7417 202.818 48.275C202.718 48.4083 202.602 48.575 202.468 48.775C202.335 48.9583 202.143 49.2 201.893 49.5C201.827 49.5667 201.752 49.6 201.668 49.6C201.552 49.6 201.493 49.5333 201.493 49.4C201.493 49.3 201.527 49.2167 201.593 49.15C202.027 48.6 202.41 48.1083 202.743 47.675C203.093 47.2417 203.352 46.875 203.518 46.575C203.518 46.5417 203.568 46.4417 203.668 46.275C203.768 46.0917 203.902 45.8417 204.068 45.525C203.935 45.5417 203.818 45.5583 203.718 45.575C203.635 45.575 203.56 45.575 203.493 45.575C203.377 45.575 203.277 45.525 203.193 45.425C203.11 45.325 203.102 45.2 203.168 45.05C203.252 44.8167 203.435 44.6833 203.718 44.65C204.002 44.6167 204.252 44.5917 204.468 44.575C204.485 44.5417 204.518 44.525 204.568 44.525C204.768 44.1583 204.96 43.8 205.143 43.45C205.327 43.1 205.477 42.8083 205.593 42.575C205.727 42.3417 205.793 42.2167 205.793 42.2C206.127 41.6667 206.343 41.3167 206.443 41.15C206.543 40.9667 206.677 40.8583 206.843 40.825C207.027 40.8083 207.218 40.8167 207.418 40.85C207.635 40.8833 207.777 40.9583 207.843 41.075C207.893 41.1417 207.918 41.225 207.918 41.325C207.918 41.475 207.885 41.625 207.818 41.775C207.752 41.9083 207.685 42.0167 207.618 42.1C207.552 42.2167 207.46 42.3 207.343 42.35C207.243 42.3833 207.152 42.4833 207.068 42.65C206.902 42.9667 206.718 43.3083 206.518 43.675C206.318 44.0417 206.11 44.3917 205.893 44.725L206.193 44.7C206.593 44.6667 206.968 44.625 207.318 44.575C207.685 44.525 208.102 44.5083 208.568 44.525C208.652 44.525 208.735 44.5417 208.818 44.575C208.918 44.5917 208.968 44.625 208.968 44.675C208.968 44.7417 208.752 44.8333 208.318 44.95C208.152 45.0167 207.785 45.0917 207.218 45.175C206.668 45.2417 206.102 45.3083 205.518 45.375C205.352 45.6917 205.202 45.9583 205.068 46.175C204.935 46.375 204.843 46.525 204.793 46.625C204.427 47.3917 204.093 48.0917 203.793 48.725C203.51 49.3417 203.352 49.85 203.318 50.25C203.302 50.3167 203.293 50.3833 203.293 50.45C203.293 50.5 203.293 50.5583 203.293 50.625C203.293 51.2917 203.51 51.625 203.943 51.625C204.21 51.625 204.552 51.4833 204.968 51.2C205.385 50.9 205.81 50.5417 206.243 50.125C206.677 49.6917 207.068 49.2833 207.418 48.9C207.785 48.5 208.035 48.2 208.168 48C208.218 47.95 208.268 47.925 208.318 47.925C208.385 47.925 208.435 47.95 208.468 48C208.518 48.05 208.527 48.1167 208.493 48.2C208.343 48.4833 208.085 48.8417 207.718 49.275C207.368 49.6917 206.968 50.1167 206.518 50.55C206.085 50.9667 205.66 51.325 205.243 51.625C205.027 51.7917 204.752 51.9333 204.418 52.05C204.102 52.1833 203.777 52.25 203.443 52.25ZM210.133 52.375C209.383 52.375 208.733 52.2 208.183 51.85C207.633 51.5 207.358 50.9667 207.358 50.25C207.358 49.8667 207.475 49.4 207.708 48.85C207.875 48.4667 208.183 48.025 208.633 47.525C209.083 47.025 209.608 46.5417 210.208 46.075C210.808 45.5917 211.416 45.2 212.033 44.9C212.65 44.5833 213.208 44.425 213.708 44.425C213.891 44.425 214.058 44.45 214.208 44.5C214.491 44.6 214.683 44.7583 214.783 44.975C214.9 45.1917 214.958 45.4167 214.958 45.65C214.958 45.8667 214.925 46.075 214.858 46.275C214.791 46.475 214.708 46.65 214.608 46.8C214.308 47.25 213.875 47.65 213.308 48C212.758 48.35 212.191 48.625 211.608 48.825C211.041 49.025 210.575 49.1417 210.208 49.175H210.158C209.941 49.175 209.833 49.1083 209.833 48.975C209.833 48.8917 209.9 48.85 210.033 48.85C210.433 48.8167 210.933 48.6333 211.533 48.3C212.15 47.95 212.691 47.5917 213.158 47.225C213.358 47.0583 213.591 46.825 213.858 46.525C214.141 46.225 214.283 45.9333 214.283 45.65C214.283 45.35 214.141 45.2 213.858 45.2C213.708 45.2 213.55 45.2333 213.383 45.3C213.233 45.3667 213.108 45.4167 213.008 45.45C212.525 45.6833 211.991 46.05 211.408 46.55C210.825 47.0333 210.291 47.5833 209.808 48.2C209.341 48.8 209.016 49.4083 208.833 50.025C208.783 50.1583 208.75 50.2917 208.733 50.425C208.716 50.5417 208.708 50.6583 208.708 50.775C208.708 51.175 208.833 51.4583 209.083 51.625C209.35 51.7917 209.666 51.875 210.033 51.875C210.583 51.875 211.15 51.7583 211.733 51.525C212.316 51.275 212.883 50.9583 213.433 50.575C213.983 50.1917 214.483 49.7833 214.933 49.35C215.4 48.9 215.791 48.4667 216.108 48.05C216.158 47.9833 216.216 47.95 216.283 47.95C216.35 47.9333 216.391 47.9417 216.408 47.975C216.475 47.9917 216.508 48.0417 216.508 48.125C216.508 48.1917 216.491 48.2583 216.458 48.325C215.991 48.975 215.425 49.6083 214.758 50.225C214.108 50.8417 213.383 51.3583 212.583 51.775C211.8 52.175 210.983 52.375 210.133 52.375ZM219.141 52.3C218.858 52.3 218.608 52.2333 218.391 52.1C218.175 51.9833 218.025 51.75 217.941 51.4C217.891 51.2167 217.866 51.0333 217.866 50.85C217.866 50.35 217.991 49.8667 218.241 49.4C218.508 48.9167 218.816 48.475 219.166 48.075C219.516 47.6583 219.816 47.3083 220.066 47.025C220.2 46.8917 220.35 46.7167 220.516 46.5C220.7 46.2833 220.791 46.0667 220.791 45.85C220.791 45.7167 220.725 45.5917 220.591 45.475C220.458 45.3417 220.216 45.25 219.866 45.2C219.666 45.1667 219.475 45.1417 219.291 45.125C219.125 45.0917 218.95 45.075 218.766 45.075C218.3 45.7083 217.841 46.35 217.391 47C216.958 47.6333 216.491 48.2583 215.991 48.875C215.875 48.9917 215.775 49.05 215.691 49.05C215.591 49.05 215.541 49 215.541 48.9C215.541 48.8 215.591 48.7 215.691 48.6C216.591 47.5 217.366 46.325 218.016 45.075C217.933 45.075 217.808 45.075 217.641 45.075C217.475 45.0583 217.341 45.0417 217.241 45.025C217.125 44.9917 217.033 44.9417 216.966 44.875C216.9 44.8083 216.866 44.7417 216.866 44.675C216.866 44.575 216.908 44.5167 216.991 44.5C217.208 44.4333 217.441 44.3333 217.691 44.2C217.941 44.0667 218.175 43.8917 218.391 43.675C218.625 43.4417 218.841 43.2 219.041 42.95C219.241 42.6833 219.4 42.4833 219.516 42.35C219.633 42.2667 219.758 42.225 219.891 42.225C219.975 42.225 220.05 42.25 220.116 42.3C220.2 42.35 220.241 42.425 220.241 42.525C220.241 42.6417 220.191 42.7917 220.091 42.975C219.941 43.2083 219.775 43.4667 219.591 43.75C219.425 44.0333 219.266 44.2917 219.116 44.525C219.416 44.5417 219.716 44.5583 220.016 44.575C220.316 44.5917 220.625 44.6 220.941 44.6C221.108 44.6 221.266 44.6 221.416 44.6C221.583 44.5833 221.75 44.575 221.916 44.575C222.416 44.575 222.666 44.7 222.666 44.95C222.666 45.1167 222.575 45.325 222.391 45.575C222.225 45.8083 222.016 46.0667 221.766 46.35C221.2 47 220.716 47.6833 220.316 48.4C219.916 49.1167 219.65 49.6667 219.516 50.05C219.383 50.45 219.316 50.75 219.316 50.95C219.316 51.35 219.475 51.55 219.791 51.55C220.075 51.55 220.416 51.4083 220.816 51.125C221.233 50.8417 221.658 50.5 222.091 50.1C222.525 49.6833 222.916 49.2833 223.266 48.9C223.616 48.5 223.866 48.2 224.016 48C224.05 47.95 224.1 47.925 224.166 47.925C224.233 47.925 224.291 47.9583 224.341 48.025C224.391 48.075 224.391 48.1417 224.341 48.225C224.158 48.5083 223.891 48.8667 223.541 49.3C223.191 49.7167 222.8 50.1333 222.366 50.55C221.933 50.9667 221.508 51.325 221.091 51.625C220.875 51.7917 220.575 51.9417 220.191 52.075C219.825 52.225 219.475 52.3 219.141 52.3Z" fill="#093D5D"/>
</svg>
