<svg width="295" height="75" viewBox="0 0 295 75" fill="none" xmlns="http://www.w3.org/2000/svg">
<path d="M16.7815 13.008C19.0615 13.008 21.0535 13.524 22.7575 14.556C24.4855 15.588 25.8175 17.076 26.7535 19.02C27.7135 20.94 28.1935 23.28 28.1935 26.04C28.1935 28.728 27.7015 31.08 26.7175 33.096C25.7575 35.112 24.4135 36.684 22.6855 37.812C20.9575 38.94 18.9775 39.504 16.7455 39.504C14.4655 39.504 12.4615 38.988 10.7335 37.956C9.02946 36.924 7.69746 35.436 6.73746 33.492C5.80146 31.548 5.33346 29.208 5.33346 26.472C5.33346 23.784 5.82546 21.432 6.80946 19.416C7.79346 17.4 9.13746 15.828 10.8415 14.7C12.5695 13.572 14.5495 13.008 16.7815 13.008ZM16.6375 13.656C15.0775 13.656 13.7215 14.196 12.5695 15.276C11.4175 16.356 10.5175 17.844 9.86946 19.74C9.24546 21.636 8.93346 23.832 8.93346 26.328C8.93346 28.872 9.28146 31.092 9.97746 32.988C10.6975 34.86 11.6575 36.312 12.8575 37.344C14.0815 38.352 15.4255 38.856 16.8895 38.856C18.4495 38.856 19.8055 38.316 20.9575 37.236C22.1095 36.156 22.9975 34.668 23.6215 32.772C24.2695 30.852 24.5935 28.656 24.5935 26.184C24.5935 23.616 24.2335 21.396 23.5135 19.524C22.8175 17.652 21.8695 16.212 20.6695 15.204C19.4695 14.172 18.1255 13.656 16.6375 13.656ZM59.6718 13.512V14.232C58.8558 14.256 58.2318 14.352 57.7998 14.52C57.3918 14.664 57.1158 14.952 56.9718 15.384C56.8278 15.792 56.7558 16.44 56.7558 17.328V35.184C56.7558 36.048 56.8278 36.696 56.9718 37.128C57.1158 37.56 57.3918 37.848 57.7998 37.992C58.2318 38.136 58.8558 38.232 59.6718 38.28V39C59.1198 38.952 58.4238 38.928 57.5838 38.928C56.7678 38.904 55.9398 38.892 55.0998 38.892C54.1638 38.892 53.2878 38.904 52.4718 38.928C51.6558 38.928 50.9958 38.952 50.4918 39V38.28C51.3078 38.232 51.9198 38.136 52.3278 37.992C52.7598 37.848 53.0478 37.56 53.1918 37.128C53.3358 36.696 53.4078 36.048 53.4078 35.184V15.384L53.5518 15.492L44.7318 39.18H44.1558L35.0838 15.816V34.824C35.0838 35.688 35.1558 36.372 35.2998 36.876C35.4678 37.356 35.7798 37.704 36.2358 37.92C36.7158 38.112 37.4238 38.232 38.3598 38.28V39C37.9278 38.952 37.3638 38.928 36.6678 38.928C35.9718 38.904 35.3118 38.892 34.6878 38.892C34.0878 38.892 33.4758 38.904 32.8518 38.928C32.2518 38.928 31.7478 38.952 31.3398 39V38.28C32.1558 38.232 32.7678 38.112 33.1758 37.92C33.6078 37.704 33.8958 37.356 34.0398 36.876C34.1838 36.372 34.2558 35.688 34.2558 34.824V17.328C34.2558 16.44 34.1838 15.792 34.0398 15.384C33.8958 14.952 33.6078 14.664 33.1758 14.52C32.7678 14.352 32.1558 14.256 31.3398 14.232V13.512C31.7478 13.536 32.2518 13.56 32.8518 13.584C33.4758 13.608 34.0878 13.62 34.6878 13.62C35.2158 13.62 35.7558 13.608 36.3078 13.584C36.8838 13.56 37.3638 13.536 37.7478 13.512L45.9198 35.04L45.3078 35.328L53.4078 13.62C53.6958 13.62 53.9718 13.62 54.2358 13.62C54.5238 13.62 54.8118 13.62 55.0998 13.62C55.9398 13.62 56.7678 13.608 57.5838 13.584C58.4238 13.56 59.1198 13.536 59.6718 13.512ZM74.2619 13.008C75.8459 13.008 77.1419 13.248 78.1499 13.728C79.1819 14.184 80.0939 14.724 80.8859 15.348C81.3659 15.708 81.7259 15.756 81.9659 15.492C82.2299 15.204 82.4099 14.544 82.5059 13.512H83.3339C83.2859 14.4 83.2499 15.48 83.2259 16.752C83.2019 18.024 83.1899 19.704 83.1899 21.792H82.3619C82.1939 20.76 82.0379 19.944 81.8939 19.344C81.7499 18.72 81.5699 18.192 81.3539 17.76C81.1619 17.328 80.8979 16.896 80.5619 16.464C79.8179 15.48 78.8819 14.772 77.7539 14.34C76.6259 13.884 75.4379 13.656 74.1899 13.656C73.0139 13.656 71.9459 13.956 70.9859 14.556C70.0499 15.132 69.2339 15.972 68.5379 17.076C67.8659 18.18 67.3379 19.512 66.9539 21.072C66.5939 22.632 66.4139 24.384 66.4139 26.328C66.4139 28.344 66.6179 30.132 67.0259 31.692C67.4339 33.228 67.9979 34.524 68.7179 35.58C69.4619 36.636 70.3259 37.44 71.3099 37.992C72.3179 38.52 73.3979 38.784 74.5499 38.784C75.6299 38.784 76.7579 38.568 77.9339 38.136C79.1099 37.704 80.0339 37.008 80.7059 36.048C81.2339 35.352 81.5939 34.596 81.7859 33.78C82.0019 32.964 82.1939 31.824 82.3619 30.36H83.1899C83.1899 32.544 83.2019 34.308 83.2259 35.652C83.2499 36.972 83.2859 38.088 83.3339 39H82.5059C82.4099 37.968 82.2419 37.32 82.0019 37.056C81.7859 36.792 81.4139 36.828 80.8859 37.164C79.9979 37.788 79.0499 38.34 78.0419 38.82C77.0579 39.276 75.7859 39.504 74.2259 39.504C71.9459 39.504 69.9419 38.988 68.2139 37.956C66.5099 36.924 65.1779 35.436 64.2179 33.492C63.2819 31.548 62.8139 29.208 62.8139 26.472C62.8139 23.784 63.3059 21.432 64.2899 19.416C65.2739 17.4 66.6179 15.828 68.3219 14.7C70.0499 13.572 72.0299 13.008 74.2619 13.008ZM96.1679 13.512C96.6719 13.536 97.3319 13.56 98.1479 13.584C98.9639 13.608 99.7679 13.62 100.56 13.62C101.688 13.62 102.768 13.608 103.8 13.584C104.832 13.56 105.564 13.548 105.996 13.548C108.516 13.548 110.412 14.076 111.684 15.132C112.956 16.188 113.592 17.544 113.592 19.2C113.592 20.04 113.412 20.868 113.052 21.684C112.716 22.476 112.14 23.208 111.324 23.88C110.532 24.528 109.464 25.056 108.12 25.464V25.536C110.016 25.776 111.492 26.232 112.548 26.904C113.628 27.552 114.384 28.32 114.816 29.208C115.248 30.096 115.464 31.032 115.464 32.016C115.464 33.384 115.116 34.596 114.42 35.652C113.748 36.684 112.764 37.5 111.468 38.1C110.172 38.7 108.624 39 106.824 39C106.296 39 105.504 38.988 104.448 38.964C103.392 38.916 102.12 38.892 100.632 38.892C99.7919 38.892 98.9639 38.904 98.1479 38.928C97.3319 38.928 96.6719 38.952 96.1679 39V38.28C96.9839 38.232 97.5959 38.136 98.0039 37.992C98.4359 37.848 98.7239 37.56 98.8679 37.128C99.0119 36.696 99.0839 36.048 99.0839 35.184V17.328C99.0839 16.44 99.0119 15.792 98.8679 15.384C98.7239 14.952 98.4359 14.664 98.0039 14.52C97.5959 14.352 96.9839 14.256 96.1679 14.232V13.512ZM105.096 14.232C103.992 14.232 103.272 14.436 102.936 14.844C102.6 15.252 102.432 16.08 102.432 17.328V35.184C102.432 36.024 102.504 36.66 102.648 37.092C102.792 37.524 103.056 37.812 103.44 37.956C103.824 38.1 104.388 38.172 105.132 38.172C107.484 38.172 109.188 37.632 110.244 36.552C111.324 35.448 111.864 33.888 111.864 31.872C111.864 30.024 111.36 28.596 110.352 27.588C109.368 26.58 107.736 26.076 105.456 26.076H101.748C101.748 26.076 101.748 25.98 101.748 25.788C101.748 25.572 101.748 25.464 101.748 25.464H104.844C106.26 25.464 107.352 25.2 108.12 24.672C108.888 24.12 109.416 23.4 109.704 22.512C109.992 21.6 110.136 20.628 110.136 19.596C110.136 17.82 109.74 16.488 108.948 15.6C108.18 14.688 106.896 14.232 105.096 14.232ZM130.442 13.008C132.722 13.008 134.714 13.524 136.418 14.556C138.146 15.588 139.478 17.076 140.414 19.02C141.374 20.94 141.854 23.28 141.854 26.04C141.854 28.728 141.362 31.08 140.378 33.096C139.418 35.112 138.074 36.684 136.346 37.812C134.618 38.94 132.638 39.504 130.406 39.504C128.126 39.504 126.122 38.988 124.394 37.956C122.69 36.924 121.358 35.436 120.398 33.492C119.462 31.548 118.994 29.208 118.994 26.472C118.994 23.784 119.486 21.432 120.47 19.416C121.454 17.4 122.798 15.828 124.502 14.7C126.23 13.572 128.21 13.008 130.442 13.008ZM130.298 13.656C128.738 13.656 127.382 14.196 126.23 15.276C125.078 16.356 124.178 17.844 123.53 19.74C122.906 21.636 122.594 23.832 122.594 26.328C122.594 28.872 122.942 31.092 123.638 32.988C124.358 34.86 125.318 36.312 126.518 37.344C127.742 38.352 129.086 38.856 130.55 38.856C132.11 38.856 133.466 38.316 134.618 37.236C135.77 36.156 136.658 34.668 137.282 32.772C137.93 30.852 138.254 28.656 138.254 26.184C138.254 23.616 137.894 21.396 137.174 19.524C136.478 17.652 135.53 16.212 134.33 15.204C133.13 14.172 131.786 13.656 130.298 13.656ZM157.125 13.008C159.405 13.008 161.397 13.524 163.101 14.556C164.829 15.588 166.161 17.076 167.097 19.02C168.057 20.94 168.537 23.28 168.537 26.04C168.537 28.728 168.045 31.08 167.061 33.096C166.101 35.112 164.757 36.684 163.029 37.812C161.301 38.94 159.321 39.504 157.089 39.504C154.809 39.504 152.805 38.988 151.077 37.956C149.373 36.924 148.041 35.436 147.081 33.492C146.145 31.548 145.677 29.208 145.677 26.472C145.677 23.784 146.169 21.432 147.153 19.416C148.137 17.4 149.481 15.828 151.185 14.7C152.913 13.572 154.893 13.008 157.125 13.008ZM156.981 13.656C155.421 13.656 154.065 14.196 152.913 15.276C151.761 16.356 150.861 17.844 150.213 19.74C149.589 21.636 149.277 23.832 149.277 26.328C149.277 28.872 149.625 31.092 150.321 32.988C151.041 34.86 152.001 36.312 153.201 37.344C154.425 38.352 155.769 38.856 157.233 38.856C158.793 38.856 160.149 38.316 161.301 37.236C162.453 36.156 163.341 34.668 163.965 32.772C164.613 30.852 164.937 28.656 164.937 26.184C164.937 23.616 164.577 21.396 163.857 19.524C163.161 17.652 162.213 16.212 161.013 15.204C159.813 14.172 158.469 13.656 156.981 13.656ZM192.312 13.512V14.232C191.568 14.328 190.848 14.568 190.152 14.952C189.456 15.336 188.76 15.972 188.064 16.86L181.116 25.752L181.908 23.988L190.548 36.084C190.956 36.684 191.4 37.152 191.88 37.488C192.36 37.824 192.972 38.088 193.716 38.28V39C193.14 38.952 192.42 38.928 191.556 38.928C190.716 38.904 189.996 38.892 189.396 38.892C188.988 38.892 188.484 38.904 187.884 38.928C187.308 38.928 186.576 38.952 185.688 39V38.28C186.504 38.232 187.02 38.088 187.236 37.848C187.452 37.608 187.368 37.212 186.984 36.66L181.728 28.74C181.248 27.996 180.816 27.444 180.432 27.084C180.072 26.7 179.688 26.448 179.28 26.328C178.896 26.208 178.404 26.136 177.804 26.112V25.392C178.812 25.368 179.652 25.176 180.324 24.816C181.02 24.432 181.596 23.952 182.052 23.376L185.508 18.984C186.3 17.976 186.84 17.124 187.128 16.428C187.416 15.732 187.404 15.204 187.092 14.844C186.78 14.46 186.12 14.256 185.112 14.232V13.512C185.568 13.536 186.036 13.56 186.516 13.584C186.996 13.584 187.464 13.596 187.92 13.62C188.4 13.62 188.844 13.62 189.252 13.62C189.876 13.62 190.452 13.608 190.98 13.584C191.508 13.56 191.952 13.536 192.312 13.512ZM180.864 13.512V14.232C180.048 14.256 179.424 14.352 178.992 14.52C178.584 14.664 178.308 14.952 178.164 15.384C178.02 15.792 177.948 16.44 177.948 17.328V35.184C177.948 36.048 178.02 36.696 178.164 37.128C178.308 37.56 178.584 37.848 178.992 37.992C179.424 38.136 180.048 38.232 180.864 38.28V39C180.312 38.952 179.616 38.928 178.776 38.928C177.96 38.904 177.132 38.892 176.292 38.892C175.356 38.892 174.48 38.904 173.664 38.928C172.848 38.928 172.188 38.952 171.684 39V38.28C172.5 38.232 173.112 38.136 173.52 37.992C173.952 37.848 174.24 37.56 174.384 37.128C174.528 36.696 174.6 36.048 174.6 35.184V17.328C174.6 16.44 174.528 15.792 174.384 15.384C174.24 14.952 173.952 14.664 173.52 14.52C173.112 14.352 172.5 14.256 171.684 14.232V13.512C172.188 13.536 172.848 13.56 173.664 13.584C174.48 13.608 175.356 13.62 176.292 13.62C177.132 13.62 177.96 13.608 178.776 13.584C179.616 13.56 180.312 13.536 180.864 13.512ZM216.082 13.008C217.666 13.008 218.962 13.248 219.97 13.728C221.002 14.184 221.914 14.724 222.706 15.348C223.186 15.708 223.546 15.756 223.786 15.492C224.05 15.204 224.23 14.544 224.326 13.512H225.154C225.106 14.4 225.07 15.48 225.046 16.752C225.022 18.024 225.01 19.704 225.01 21.792H224.182C224.014 20.76 223.858 19.944 223.714 19.344C223.57 18.72 223.39 18.192 223.174 17.76C222.982 17.328 222.718 16.896 222.382 16.464C221.638 15.48 220.702 14.772 219.574 14.34C218.446 13.884 217.258 13.656 216.01 13.656C214.834 13.656 213.766 13.956 212.806 14.556C211.87 15.132 211.054 15.972 210.358 17.076C209.686 18.18 209.158 19.512 208.774 21.072C208.414 22.632 208.234 24.384 208.234 26.328C208.234 28.344 208.438 30.132 208.846 31.692C209.254 33.228 209.818 34.524 210.538 35.58C211.282 36.636 212.146 37.44 213.13 37.992C214.138 38.52 215.218 38.784 216.37 38.784C217.45 38.784 218.578 38.568 219.754 38.136C220.93 37.704 221.854 37.008 222.526 36.048C223.054 35.352 223.414 34.596 223.606 33.78C223.822 32.964 224.014 31.824 224.182 30.36H225.01C225.01 32.544 225.022 34.308 225.046 35.652C225.07 36.972 225.106 38.088 225.154 39H224.326C224.23 37.968 224.062 37.32 223.822 37.056C223.606 36.792 223.234 36.828 222.706 37.164C221.818 37.788 220.87 38.34 219.862 38.82C218.878 39.276 217.606 39.504 216.046 39.504C213.766 39.504 211.762 38.988 210.034 37.956C208.33 36.924 206.998 35.436 206.038 33.492C205.102 31.548 204.634 29.208 204.634 26.472C204.634 23.784 205.126 21.432 206.11 19.416C207.094 17.4 208.438 15.828 210.142 14.7C211.87 13.572 213.85 13.008 216.082 13.008ZM238.203 13.512V14.232C237.387 14.256 236.763 14.352 236.331 14.52C235.923 14.664 235.647 14.952 235.503 15.384C235.359 15.792 235.287 16.44 235.287 17.328V35.184C235.287 36.048 235.359 36.696 235.503 37.128C235.647 37.56 235.923 37.848 236.331 37.992C236.763 38.112 237.387 38.172 238.203 38.172H240.831C241.959 38.172 242.871 38.052 243.567 37.812C244.287 37.572 244.851 37.2 245.259 36.696C245.691 36.168 246.015 35.472 246.231 34.608C246.447 33.744 246.615 32.688 246.735 31.44H247.563C247.491 32.184 247.455 33.168 247.455 34.392C247.455 34.848 247.467 35.508 247.491 36.372C247.539 37.212 247.611 38.088 247.707 39C246.483 38.952 245.103 38.928 243.567 38.928C242.031 38.904 240.663 38.892 239.463 38.892C238.935 38.892 238.251 38.892 237.411 38.892C236.595 38.892 235.707 38.904 234.747 38.928C233.787 38.928 232.815 38.94 231.831 38.964C230.847 38.964 229.911 38.976 229.023 39V38.28C229.839 38.232 230.451 38.136 230.859 37.992C231.291 37.848 231.579 37.56 231.723 37.128C231.867 36.696 231.939 36.048 231.939 35.184V17.328C231.939 16.44 231.867 15.792 231.723 15.384C231.579 14.952 231.291 14.664 230.859 14.52C230.451 14.352 229.839 14.256 229.023 14.232V13.512C229.527 13.536 230.187 13.56 231.003 13.584C231.819 13.608 232.695 13.62 233.631 13.62C234.471 13.62 235.299 13.608 236.115 13.584C236.955 13.56 237.651 13.536 238.203 13.512ZM272.255 13.512V14.232C271.439 14.256 270.815 14.376 270.383 14.592C269.975 14.808 269.699 15.156 269.555 15.636C269.411 16.116 269.339 16.8 269.339 17.688V28.524C269.339 30.204 269.231 31.668 269.015 32.916C268.799 34.164 268.415 35.244 267.863 36.156C267.263 37.164 266.387 37.98 265.235 38.604C264.083 39.204 262.763 39.504 261.275 39.504C260.123 39.504 259.019 39.36 257.963 39.072C256.931 38.808 256.019 38.304 255.227 37.56C254.531 36.888 253.979 36.18 253.571 35.436C253.187 34.692 252.923 33.78 252.779 32.7C252.635 31.62 252.563 30.264 252.563 28.632V17.328C252.563 16.44 252.491 15.792 252.347 15.384C252.203 14.952 251.915 14.664 251.483 14.52C251.075 14.352 250.463 14.256 249.647 14.232V13.512C250.151 13.536 250.811 13.56 251.627 13.584C252.443 13.608 253.319 13.62 254.255 13.62C255.095 13.62 255.923 13.608 256.739 13.584C257.579 13.56 258.275 13.536 258.827 13.512V14.232C258.011 14.256 257.387 14.352 256.955 14.52C256.547 14.664 256.271 14.952 256.127 15.384C255.983 15.792 255.911 16.44 255.911 17.328V29.244C255.911 30.468 255.971 31.632 256.091 32.736C256.211 33.816 256.451 34.776 256.811 35.616C257.195 36.432 257.771 37.08 258.539 37.56C259.307 38.016 260.327 38.244 261.599 38.244C263.423 38.244 264.827 37.848 265.811 37.056C266.819 36.24 267.515 35.124 267.899 33.708C268.307 32.292 268.511 30.696 268.511 28.92V17.688C268.511 16.8 268.403 16.116 268.187 15.636C267.995 15.156 267.659 14.808 267.179 14.592C266.699 14.376 266.051 14.256 265.235 14.232V13.512C265.667 13.536 266.231 13.56 266.927 13.584C267.647 13.608 268.307 13.62 268.907 13.62C269.531 13.62 270.143 13.608 270.743 13.584C271.367 13.56 271.871 13.536 272.255 13.512ZM274.727 13.512C275.231 13.536 275.891 13.56 276.707 13.584C277.523 13.608 278.327 13.62 279.119 13.62C280.247 13.62 281.327 13.608 282.359 13.584C283.391 13.56 284.123 13.548 284.555 13.548C287.075 13.548 288.971 14.076 290.243 15.132C291.515 16.188 292.151 17.544 292.151 19.2C292.151 20.04 291.971 20.868 291.611 21.684C291.275 22.476 290.699 23.208 289.883 23.88C289.091 24.528 288.023 25.056 286.679 25.464V25.536C288.575 25.776 290.051 26.232 291.107 26.904C292.187 27.552 292.943 28.32 293.375 29.208C293.807 30.096 294.023 31.032 294.023 32.016C294.023 33.384 293.675 34.596 292.979 35.652C292.307 36.684 291.323 37.5 290.027 38.1C288.731 38.7 287.183 39 285.383 39C284.855 39 284.063 38.988 283.007 38.964C281.951 38.916 280.679 38.892 279.191 38.892C278.351 38.892 277.523 38.904 276.707 38.928C275.891 38.928 275.231 38.952 274.727 39V38.28C275.543 38.232 276.155 38.136 276.563 37.992C276.995 37.848 277.283 37.56 277.427 37.128C277.571 36.696 277.643 36.048 277.643 35.184V17.328C277.643 16.44 277.571 15.792 277.427 15.384C277.283 14.952 276.995 14.664 276.563 14.52C276.155 14.352 275.543 14.256 274.727 14.232V13.512ZM283.655 14.232C282.551 14.232 281.831 14.436 281.495 14.844C281.159 15.252 280.991 16.08 280.991 17.328V35.184C280.991 36.024 281.063 36.66 281.207 37.092C281.351 37.524 281.615 37.812 281.999 37.956C282.383 38.1 282.947 38.172 283.691 38.172C286.043 38.172 287.747 37.632 288.803 36.552C289.883 35.448 290.423 33.888 290.423 31.872C290.423 30.024 289.919 28.596 288.911 27.588C287.927 26.58 286.295 26.076 284.015 26.076H280.307C280.307 26.076 280.307 25.98 280.307 25.788C280.307 25.572 280.307 25.464 280.307 25.464H283.403C284.819 25.464 285.911 25.2 286.679 24.672C287.447 24.12 287.975 23.4 288.263 22.512C288.551 21.6 288.695 20.628 288.695 19.596C288.695 17.82 288.299 16.488 287.507 15.6C286.739 14.688 285.455 14.232 283.655 14.232Z" fill="#683651"/>
<path d="M54.5195 66.304C53.0262 66.304 51.7568 65.9307 50.7115 65.184C49.6875 64.4373 48.9088 63.4773 48.3755 62.304C47.8422 61.1093 47.5755 59.8293 47.5755 58.464C47.5755 57.0987 47.8528 55.744 48.4075 54.4C48.9622 53.056 49.8155 51.872 50.9675 50.848C52.1195 49.824 53.5702 49.1093 55.3195 48.704C55.5542 48.6613 55.7888 48.6293 56.0235 48.608C56.2582 48.5653 56.5142 48.544 56.7915 48.544C57.2608 48.544 57.7195 48.608 58.1675 48.736C58.6155 48.864 58.9995 49.0987 59.3195 49.44C59.5542 49.6533 59.6715 49.8027 59.6715 49.888C59.6715 49.9733 59.6502 50.016 59.6075 50.016C59.5435 50.016 59.4582 49.984 59.3515 49.92C59.2662 49.856 59.1702 49.8133 59.0635 49.792C58.6795 49.6427 58.2528 49.568 57.7835 49.568C57.6555 49.568 57.5275 49.5787 57.3995 49.6C57.2928 49.6 57.1862 49.6107 57.0795 49.632C55.8208 49.9307 54.6902 50.4427 53.6875 51.168C52.7062 51.8933 51.8635 52.7573 51.1595 53.76C50.4768 54.7627 49.9542 55.8187 49.5915 56.928C49.2288 58.016 49.0475 59.072 49.0475 60.096C49.0475 61.0987 49.2288 62.016 49.5915 62.848C49.9542 63.68 50.5088 64.3413 51.2555 64.832C52.0235 65.3227 52.9942 65.568 54.1675 65.568C54.4875 65.568 54.8288 65.5467 55.1915 65.504C55.5542 65.4613 55.9382 65.3973 56.3435 65.312C57.1968 65.12 58.0608 64.704 58.9355 64.064C59.8315 63.4453 60.6848 62.6773 61.4955 61.76C62.3062 60.8213 63.0208 59.808 63.6395 58.72C64.2795 57.6107 64.7808 56.4693 65.1435 55.296C65.5275 54.1227 65.7195 52.9813 65.7195 51.872C65.7195 49.7387 65.1222 48.1493 63.9275 47.104C62.7542 46.0373 61.1648 45.504 59.1595 45.504C57.8368 45.504 56.5142 45.7493 55.1915 46.24C53.8902 46.7093 52.7702 47.2853 51.8315 47.968C50.8715 48.6293 49.9968 49.4187 49.2075 50.336C48.4395 51.232 47.8102 52.192 47.3195 53.216C46.8288 54.2187 46.5302 55.232 46.4235 56.256C46.4235 56.4907 46.3702 56.608 46.2635 56.608C46.1782 56.608 46.0928 56.512 46.0075 56.32C45.9222 56.1067 45.8795 55.8933 45.8795 55.68C45.8795 54.4853 46.1248 53.344 46.6155 52.256C47.1275 51.168 47.8102 50.1653 48.6635 49.248C49.5168 48.3307 50.4875 47.5413 51.5755 46.88C52.6635 46.1973 53.7942 45.6747 54.9675 45.312C56.1622 44.928 57.3248 44.736 58.4555 44.736C60.1622 44.7147 61.6768 45.024 62.9995 45.664C64.3435 46.304 65.3995 47.232 66.1675 48.448C66.9355 49.664 67.3195 51.136 67.3195 52.864C67.3195 54.5493 66.9995 56.128 66.3595 57.6C65.7408 59.072 64.9088 60.3947 63.8635 61.568C62.8395 62.72 61.6982 63.68 60.4395 64.448C59.2022 65.216 57.9648 65.7387 56.7275 66.016C56.3222 66.1227 55.9382 66.1973 55.5755 66.24C55.2342 66.2827 54.8822 66.304 54.5195 66.304ZM66.906 64.416C66.7567 64.416 66.714 64.3413 66.778 64.192C66.842 64.064 66.9593 63.776 67.13 63.328C67.3007 62.8587 67.4927 62.304 67.706 61.664C67.9407 61.024 68.1753 60.3627 68.41 59.68C68.6447 58.9973 68.858 58.3573 69.05 57.76C69.2633 57.1627 69.434 56.6933 69.562 56.352C69.6047 56.224 69.6473 56.0427 69.69 55.808C69.7327 55.552 69.818 55.328 69.946 55.136C70.0953 54.9227 70.3407 54.816 70.682 54.816C71.322 54.816 71.642 54.9653 71.642 55.264C71.642 55.3707 71.5887 55.552 71.482 55.808C71.226 56.384 70.9487 57.0453 70.65 57.792C70.3513 58.5387 70.0847 59.2427 69.85 59.904C69.6153 60.5653 69.434 61.0773 69.306 61.44C69.5193 61.1413 69.8607 60.7147 70.33 60.16C70.8207 59.6053 71.3647 59.008 71.962 58.368C72.5593 57.728 73.178 57.1093 73.818 56.512C74.4793 55.9147 75.0873 55.4347 75.642 55.072C76.218 54.688 76.7087 54.496 77.114 54.496C77.626 54.496 77.882 54.7733 77.882 55.328C77.882 55.52 77.8287 55.808 77.722 56.192C77.53 56.7253 77.2847 57.248 76.986 57.76C76.6873 58.2507 76.4207 58.7733 76.186 59.328C75.7807 60.3307 75.546 61.1413 75.482 61.76C75.4607 61.8453 75.45 61.9307 75.45 62.016C75.45 62.08 75.45 62.1547 75.45 62.24C75.45 63.0933 75.738 63.52 76.314 63.52C76.634 63.52 77.0607 63.328 77.594 62.944C78.1273 62.56 78.6713 62.1013 79.226 61.568C79.802 61.0347 80.314 60.5227 80.762 60.032C81.21 59.52 81.5193 59.136 81.69 58.88C81.754 58.816 81.818 58.784 81.882 58.784C81.9673 58.784 82.0313 58.816 82.074 58.88C82.138 58.944 82.1487 59.0293 82.106 59.136C81.914 59.4987 81.5833 59.9573 81.114 60.512C80.666 61.0453 80.1647 61.5893 79.61 62.144C79.0553 62.6773 78.5113 63.136 77.978 63.52C77.658 63.7333 77.2633 63.9253 76.794 64.096C76.3247 64.2667 75.8553 64.3413 75.386 64.32C74.7887 64.256 74.362 64.0533 74.106 63.712C73.85 63.3493 73.722 62.9227 73.722 62.432C73.722 61.856 73.8287 61.248 74.042 60.608C74.2767 59.9467 74.5327 59.328 74.81 58.752C75.0873 58.176 75.3113 57.7387 75.482 57.44C75.6527 57.0987 75.738 56.832 75.738 56.64C75.738 56.4693 75.6633 56.384 75.514 56.384C75.3647 56.384 75.1407 56.48 74.842 56.672C74.5433 56.864 74.138 57.1947 73.626 57.664C73.1567 58.0693 72.6553 58.6027 72.122 59.264C71.5887 59.904 71.066 60.5653 70.554 61.248C70.0633 61.9307 69.626 62.5173 69.242 63.008C68.8793 63.4987 68.6233 63.7867 68.474 63.872C68.3673 63.936 68.122 64.0427 67.738 64.192C67.3753 64.3413 67.098 64.416 66.906 64.416ZM84.0995 64.48C83.1395 64.48 82.3075 64.256 81.6035 63.808C80.8995 63.36 80.5475 62.6773 80.5475 61.76C80.5475 61.2693 80.6968 60.672 80.9955 59.968C81.2088 59.4773 81.6035 58.912 82.1795 58.272C82.7555 57.632 83.4275 57.0133 84.1955 56.416C84.9635 55.7973 85.7422 55.296 86.5315 54.912C87.3208 54.5067 88.0355 54.304 88.6755 54.304C88.9102 54.304 89.1235 54.336 89.3155 54.4C89.6782 54.528 89.9235 54.7307 90.0515 55.008C90.2008 55.2853 90.2755 55.5733 90.2755 55.872C90.2755 56.1493 90.2328 56.416 90.1475 56.672C90.0622 56.928 89.9555 57.152 89.8275 57.344C89.4435 57.92 88.8888 58.432 88.1635 58.88C87.4595 59.328 86.7342 59.68 85.9875 59.936C85.2622 60.192 84.6648 60.3413 84.1955 60.384H84.1315C83.8542 60.384 83.7155 60.2987 83.7155 60.128C83.7155 60.0213 83.8008 59.968 83.9715 59.968C84.4835 59.9253 85.1235 59.6907 85.8915 59.264C86.6808 58.816 87.3742 58.3573 87.9715 57.888C88.2275 57.6747 88.5262 57.376 88.8675 56.992C89.2302 56.608 89.4115 56.2347 89.4115 55.872C89.4115 55.488 89.2302 55.296 88.8675 55.296C88.6755 55.296 88.4728 55.3387 88.2595 55.424C88.0675 55.5093 87.9075 55.5733 87.7795 55.616C87.1608 55.9147 86.4782 56.384 85.7315 57.024C84.9848 57.6427 84.3022 58.3467 83.6835 59.136C83.0862 59.904 82.6702 60.6827 82.4355 61.472C82.3715 61.6427 82.3288 61.8133 82.3075 61.984C82.2862 62.1333 82.2755 62.2827 82.2755 62.432C82.2755 62.944 82.4355 63.3067 82.7555 63.52C83.0968 63.7333 83.5022 63.84 83.9715 63.84C84.6755 63.84 85.4008 63.6907 86.1475 63.392C86.8942 63.072 87.6195 62.6667 88.3235 62.176C89.0275 61.6853 89.6675 61.1627 90.2435 60.608C90.8408 60.032 91.3422 59.4773 91.7475 58.944C91.8115 58.8587 91.8862 58.816 91.9715 58.816C92.0568 58.7947 92.1102 58.8053 92.1315 58.848C92.2168 58.8693 92.2595 58.9333 92.2595 59.04C92.2595 59.1253 92.2382 59.2107 92.1955 59.296C91.5982 60.128 90.8728 60.9387 90.0195 61.728C89.1875 62.5173 88.2595 63.1787 87.2355 63.712C86.2328 64.224 85.1875 64.48 84.0995 64.48ZM98.4382 66.464C97.9689 66.464 97.5849 66.3147 97.2862 66.016C96.9876 65.7173 96.8382 65.3013 96.8382 64.768C96.8382 64.4693 96.9022 64.1387 97.0302 63.776C97.1369 63.392 97.3289 62.9867 97.6062 62.56C98.0969 61.792 98.7262 60.9387 99.4942 60C100.284 59.04 101.116 58.0907 101.99 57.152C102.865 56.2133 103.686 55.36 104.454 54.592C105.244 53.8027 105.873 53.1947 106.342 52.768C106.556 52.128 106.758 51.4667 106.95 50.784C107.164 50.1013 107.377 49.3973 107.59 48.672C106.993 49.2267 106.31 49.6427 105.542 49.92C104.796 50.1973 104.092 50.3573 103.43 50.4H103.398C103.185 50.4 103.078 50.3253 103.078 50.176C103.078 50.0053 103.206 49.9093 103.462 49.888C104.081 49.824 104.721 49.5893 105.382 49.184C106.044 48.7573 106.652 48.224 107.206 47.584C107.782 46.9227 108.22 46.2187 108.518 45.472C108.561 45.344 108.7 45.248 108.934 45.184C109.19 45.12 109.457 45.088 109.734 45.088C109.969 45.088 110.172 45.12 110.342 45.184C110.534 45.2267 110.609 45.3227 110.566 45.472C110.182 46.4533 109.809 47.4027 109.446 48.32C109.084 49.216 108.732 50.0907 108.39 50.944C109.649 49.8773 110.822 48.992 111.91 48.288C113.02 47.5627 113.916 47.1787 114.598 47.136C115.814 47.072 116.764 47.2747 117.446 47.744C118.15 48.2133 118.641 48.8427 118.918 49.632C119.217 50.4 119.366 51.2213 119.366 52.096C119.366 52.3093 119.356 52.512 119.334 52.704C119.334 52.896 119.324 53.088 119.302 53.28C119.196 54.2613 118.982 55.3813 118.662 56.64C118.342 57.8987 118.001 59.072 117.638 60.16C117.596 60.2667 117.532 60.4587 117.446 60.736C117.361 60.992 117.35 61.12 117.414 61.12C117.436 61.12 117.542 60.9813 117.734 60.704C118.268 59.8293 118.78 58.976 119.27 58.144C119.782 57.2907 120.326 56.416 120.902 55.52C121.756 54.1973 122.684 52.864 123.686 51.52C124.71 50.176 125.734 48.9707 126.758 47.904C127.164 47.4773 127.58 47.1573 128.006 46.944C128.454 46.7307 128.87 46.624 129.254 46.624C129.681 46.624 130.033 46.7733 130.31 47.072C130.609 47.3493 130.758 47.7867 130.758 48.384C130.758 48.5333 130.737 48.704 130.694 48.896C130.673 49.0667 130.641 49.2587 130.598 49.472C130.342 50.496 130.044 51.4347 129.702 52.288C129.361 53.1413 129.02 53.984 128.678 54.816C128.337 55.6267 128.028 56.48 127.75 57.376C127.494 58.272 127.313 59.264 127.206 60.352C127.185 60.544 127.164 60.7253 127.142 60.896C127.142 61.0667 127.142 61.2267 127.142 61.376C127.142 62.1013 127.249 62.6347 127.462 62.976C127.676 63.296 127.953 63.456 128.294 63.456C128.7 63.456 129.169 63.2853 129.702 62.944C130.257 62.5813 130.812 62.144 131.366 61.632C131.921 61.0987 132.422 60.5867 132.87 60.096C133.318 59.584 133.649 59.1787 133.862 58.88C133.905 58.816 133.969 58.784 134.054 58.784C134.14 58.784 134.214 58.816 134.278 58.88C134.342 58.944 134.342 59.0293 134.278 59.136C134.001 59.5627 133.606 60.064 133.094 60.64C132.604 61.1947 132.081 61.7387 131.526 62.272C130.993 62.784 130.513 63.2 130.086 63.52C129.766 63.7547 129.393 63.9467 128.966 64.096C128.561 64.2453 128.156 64.32 127.75 64.32C127.281 64.32 126.854 64.2027 126.47 63.968C126.086 63.7333 125.82 63.328 125.67 62.752C125.606 62.5387 125.564 62.3147 125.542 62.08C125.521 61.8453 125.51 61.6 125.51 61.344C125.51 60.448 125.638 59.456 125.894 58.368C126.15 57.2587 126.47 56.16 126.854 55.072C127.238 53.9627 127.601 52.96 127.942 52.064C128.305 51.1467 128.582 50.4213 128.774 49.888C128.924 49.5893 128.998 49.312 128.998 49.056C128.998 48.608 128.806 48.384 128.422 48.384C128.102 48.384 127.729 48.5653 127.302 48.928C126.684 49.4613 126.001 50.1547 125.254 51.008C124.529 51.8613 123.782 52.8 123.014 53.824C122.268 54.848 121.532 55.904 120.806 56.992C120.102 58.0587 119.452 59.0933 118.854 60.096C118.278 61.0773 117.809 61.952 117.446 62.72C117.297 63.04 117.126 63.2 116.934 63.2C116.785 63.2 116.636 63.104 116.486 62.912C116.358 62.72 116.252 62.5173 116.166 62.304C116.102 62.0693 116.092 61.9093 116.134 61.824C116.412 61.1413 116.668 60.3093 116.902 59.328C117.137 58.3253 117.329 57.2693 117.478 56.16C117.628 55.0293 117.702 53.952 117.702 52.928C117.702 51.5627 117.532 50.4107 117.19 49.472C116.849 48.512 116.252 48.032 115.398 48.032C114.844 48.032 114.14 48.2667 113.286 48.736C112.433 49.2053 111.505 49.8347 110.502 50.624C109.521 51.4133 108.508 52.288 107.462 53.248C107.27 53.7173 106.982 54.4 106.598 55.296C106.236 56.192 105.798 57.184 105.286 58.272C104.796 59.36 104.241 60.448 103.622 61.536C103.025 62.6027 102.406 63.5413 101.766 64.352C101.19 65.0773 100.614 65.6107 100.038 65.952C99.4622 66.2933 98.9289 66.464 98.4382 66.464ZM98.5982 65.344C99.1529 65.344 99.7182 65.0453 100.294 64.448C100.892 63.872 101.478 63.136 102.054 62.24C102.652 61.3227 103.196 60.3733 103.686 59.392C104.177 58.4107 104.593 57.504 104.934 56.672C105.297 55.84 105.553 55.2213 105.702 54.816C105.105 55.392 104.476 56.032 103.814 56.736C103.153 57.4187 102.502 58.1227 101.862 58.848C101.244 59.552 100.678 60.2133 100.166 60.832C99.6542 61.4507 99.2489 61.9627 98.9502 62.368C98.6089 62.8373 98.3529 63.264 98.1822 63.648C98.0329 64.0107 97.9582 64.3307 97.9582 64.608C97.9582 65.0987 98.1716 65.344 98.5982 65.344ZM135.933 64.352C135.336 64.352 134.813 64.2133 134.365 63.936C133.619 63.488 133.245 62.6773 133.245 61.504C133.245 61.0133 133.331 60.448 133.501 59.808C133.651 59.2747 133.917 58.6987 134.301 58.08C134.685 57.44 135.133 56.832 135.645 56.256C136.179 55.68 136.755 55.2107 137.373 54.848C137.992 54.4853 138.611 54.304 139.229 54.304C139.485 54.304 139.709 54.336 139.901 54.4C140.157 54.4853 140.371 54.6453 140.541 54.88C140.733 55.0933 140.829 55.3707 140.829 55.712C140.829 56.0747 140.733 56.2773 140.541 56.32C140.371 56.3627 140.285 56.32 140.285 56.192C140.285 56.1493 140.285 56.1067 140.285 56.064C140.307 56.0213 140.317 55.9893 140.317 55.968C140.317 55.7973 140.264 55.648 140.157 55.52C140.072 55.3707 139.901 55.296 139.645 55.296C139.304 55.296 138.877 55.4773 138.365 55.84C137.875 56.2027 137.363 56.6933 136.829 57.312C136.317 57.9093 135.859 58.5707 135.453 59.296C135.069 60.0213 134.813 60.7467 134.685 61.472C134.664 61.5787 134.643 61.6853 134.621 61.792C134.621 61.8773 134.621 61.9733 134.621 62.08C134.621 62.5707 134.728 62.9867 134.941 63.328C135.176 63.648 135.539 63.808 136.029 63.808C136.627 63.808 137.203 63.584 137.757 63.136C138.312 62.6667 138.803 62.112 139.229 61.472C139.677 60.832 140.008 60.2667 140.221 59.776C140.392 59.392 140.509 59.0613 140.573 58.784C140.637 58.5067 140.669 58.272 140.669 58.08C140.669 57.9093 140.648 57.76 140.605 57.632C140.584 57.504 140.552 57.3973 140.509 57.312C140.467 57.184 140.445 57.088 140.445 57.024C140.445 56.8533 140.509 56.7147 140.637 56.608C140.787 56.5013 140.936 56.448 141.085 56.448C141.213 56.448 141.352 56.4907 141.501 56.576C141.672 56.6187 141.907 56.6507 142.205 56.672C142.504 56.6933 142.824 56.704 143.165 56.704C143.528 56.704 143.891 56.6933 144.253 56.672C144.637 56.6507 144.968 56.608 145.245 56.544C145.288 56.5227 145.352 56.512 145.437 56.512C145.587 56.512 145.661 56.5547 145.661 56.64C145.661 56.7253 145.587 56.8 145.437 56.864C144.691 57.2053 144.019 57.3867 143.421 57.408C142.845 57.4293 142.344 57.44 141.917 57.44C141.96 57.9733 141.843 58.5493 141.565 59.168C141.288 59.7653 141 60.2987 140.701 60.768C140.339 61.3013 139.923 61.8453 139.453 62.4C138.984 62.9547 138.461 63.424 137.885 63.808C137.309 64.1707 136.659 64.352 135.933 64.352ZM148.88 64.384C148.518 64.384 148.198 64.2987 147.92 64.128C147.643 63.9787 147.451 63.68 147.344 63.232C147.28 62.9973 147.248 62.7627 147.248 62.528C147.248 61.888 147.408 61.2693 147.728 60.672C148.07 60.0533 148.464 59.488 148.912 58.976C149.36 58.4427 149.744 57.9947 150.064 57.632C150.235 57.4613 150.427 57.2373 150.64 56.96C150.875 56.6827 150.992 56.4053 150.992 56.128C150.992 55.9573 150.907 55.7973 150.736 55.648C150.566 55.4773 150.256 55.36 149.808 55.296C149.552 55.2533 149.307 55.2213 149.072 55.2C148.859 55.1573 148.635 55.136 148.4 55.136C147.803 55.9467 147.216 56.768 146.64 57.6C146.086 58.4107 145.488 59.2107 144.848 60C144.699 60.1493 144.571 60.224 144.464 60.224C144.336 60.224 144.272 60.16 144.272 60.032C144.272 59.904 144.336 59.776 144.464 59.648C145.616 58.24 146.608 56.736 147.44 55.136C147.334 55.136 147.174 55.136 146.96 55.136C146.747 55.1147 146.576 55.0933 146.448 55.072C146.299 55.0293 146.182 54.9653 146.096 54.88C146.011 54.7947 145.968 54.7093 145.968 54.624C145.968 54.496 146.022 54.4213 146.128 54.4C146.406 54.3147 146.704 54.1867 147.024 54.016C147.344 53.8453 147.643 53.6213 147.92 53.344C148.219 53.0453 148.496 52.736 148.752 52.416C149.008 52.0747 149.211 51.8187 149.36 51.648C149.51 51.5413 149.67 51.488 149.84 51.488C149.947 51.488 150.043 51.52 150.128 51.584C150.235 51.648 150.288 51.744 150.288 51.872C150.288 52.0213 150.224 52.2133 150.096 52.448C149.904 52.7467 149.691 53.0773 149.456 53.44C149.243 53.8027 149.04 54.1333 148.848 54.432C149.232 54.4533 149.616 54.4747 150 54.496C150.384 54.5173 150.779 54.528 151.184 54.528C151.398 54.528 151.6 54.528 151.792 54.528C152.006 54.5067 152.219 54.496 152.432 54.496C153.072 54.496 153.392 54.656 153.392 54.976C153.392 55.1893 153.275 55.456 153.04 55.776C152.827 56.0747 152.56 56.4053 152.24 56.768C151.515 57.6 150.896 58.4747 150.384 59.392C149.872 60.3093 149.531 61.0133 149.36 61.504C149.19 62.016 149.104 62.4 149.104 62.656C149.104 63.168 149.307 63.424 149.712 63.424C150.075 63.424 150.512 63.2427 151.024 62.88C151.558 62.5173 152.102 62.08 152.656 61.568C153.211 61.0347 153.712 60.5227 154.16 60.032C154.608 59.52 154.928 59.136 155.12 58.88C155.163 58.816 155.227 58.784 155.312 58.784C155.398 58.784 155.472 58.8267 155.536 58.912C155.6 58.976 155.6 59.0613 155.536 59.168C155.302 59.5307 154.96 59.9893 154.512 60.544C154.064 61.0773 153.563 61.6107 153.008 62.144C152.454 62.6773 151.91 63.136 151.376 63.52C151.099 63.7333 150.715 63.9253 150.224 64.096C149.755 64.288 149.307 64.384 148.88 64.384ZM157.631 64.48C156.671 64.48 155.839 64.256 155.135 63.808C154.431 63.36 154.079 62.6773 154.079 61.76C154.079 61.2693 154.228 60.672 154.527 59.968C154.74 59.4773 155.135 58.912 155.711 58.272C156.287 57.632 156.959 57.0133 157.727 56.416C158.495 55.7973 159.273 55.296 160.063 54.912C160.852 54.5067 161.567 54.304 162.207 54.304C162.441 54.304 162.655 54.336 162.847 54.4C163.209 54.528 163.455 54.7307 163.583 55.008C163.732 55.2853 163.807 55.5733 163.807 55.872C163.807 56.1493 163.764 56.416 163.679 56.672C163.593 56.928 163.487 57.152 163.359 57.344C162.975 57.92 162.42 58.432 161.695 58.88C160.991 59.328 160.265 59.68 159.519 59.936C158.793 60.192 158.196 60.3413 157.727 60.384H157.663C157.385 60.384 157.247 60.2987 157.247 60.128C157.247 60.0213 157.332 59.968 157.503 59.968C158.015 59.9253 158.655 59.6907 159.423 59.264C160.212 58.816 160.905 58.3573 161.503 57.888C161.759 57.6747 162.057 57.376 162.399 56.992C162.761 56.608 162.943 56.2347 162.943 55.872C162.943 55.488 162.761 55.296 162.399 55.296C162.207 55.296 162.004 55.3387 161.791 55.424C161.599 55.5093 161.439 55.5733 161.311 55.616C160.692 55.9147 160.009 56.384 159.263 57.024C158.516 57.6427 157.833 58.3467 157.215 59.136C156.617 59.904 156.201 60.6827 155.967 61.472C155.903 61.6427 155.86 61.8133 155.839 61.984C155.817 62.1333 155.807 62.2827 155.807 62.432C155.807 62.944 155.967 63.3067 156.287 63.52C156.628 63.7333 157.033 63.84 157.503 63.84C158.207 63.84 158.932 63.6907 159.679 63.392C160.425 63.072 161.151 62.6667 161.855 62.176C162.559 61.6853 163.199 61.1627 163.775 60.608C164.372 60.032 164.873 59.4773 165.279 58.944C165.343 58.8587 165.417 58.816 165.503 58.816C165.588 58.7947 165.641 58.8053 165.663 58.848C165.748 58.8693 165.791 58.9333 165.791 59.04C165.791 59.1253 165.769 59.2107 165.727 59.296C165.129 60.128 164.404 60.9387 163.551 61.728C162.719 62.5173 161.791 63.1787 160.767 63.712C159.764 64.224 158.719 64.48 157.631 64.48ZM177.409 65.472C176.3 65.472 175.276 65.28 174.337 64.896C173.42 64.5333 172.684 63.968 172.129 63.2C171.596 62.4107 171.329 61.408 171.329 60.192C171.329 59.5093 171.425 58.7733 171.617 57.984C171.916 56.7253 172.407 55.4667 173.089 54.208C173.793 52.9493 174.625 51.7653 175.585 50.656C176.567 49.5467 177.633 48.5653 178.785 47.712C179.937 46.8373 181.121 46.1547 182.337 45.664C183.575 45.152 184.801 44.896 186.017 44.896C186.38 44.896 186.753 44.928 187.137 44.992C187.991 45.1413 188.62 45.4613 189.025 45.952C189.452 46.4213 189.665 46.9653 189.665 47.584C189.665 48.3093 189.431 49.0347 188.961 49.76C188.492 50.4853 187.873 51.1787 187.105 51.84C186.359 52.48 185.537 53.056 184.641 53.568C183.767 54.08 182.903 54.496 182.049 54.816C181.196 55.136 180.439 55.3173 179.777 55.36C179.372 55.3813 179.169 55.264 179.169 55.008C179.169 54.88 179.233 54.752 179.361 54.624C179.511 54.4747 179.713 54.3893 179.969 54.368C181.633 54.2187 183.18 53.7173 184.609 52.864C186.06 51.9893 187.169 50.8053 187.937 49.312C188.108 48.992 188.236 48.672 188.321 48.352C188.428 48.0107 188.481 47.6907 188.481 47.392C188.481 46.9227 188.343 46.528 188.065 46.208C187.809 45.8667 187.351 45.696 186.689 45.696C185.964 45.696 185.111 45.92 184.129 46.368C183.148 46.7947 182.113 47.4027 181.025 48.192C179.959 48.9813 178.903 49.92 177.857 51.008C176.833 52.0747 175.905 53.248 175.073 54.528C174.263 55.7867 173.633 57.12 173.185 58.528C172.908 59.3813 172.769 60.1707 172.769 60.896C172.769 62.1973 173.217 63.1573 174.113 63.776C175.009 64.3733 176.172 64.672 177.601 64.672C178.839 64.672 180.193 64.4587 181.665 64.032C183.159 63.6053 184.609 62.9547 186.017 62.08C187.425 61.184 188.609 60.0533 189.569 58.688C189.633 58.6027 189.708 58.56 189.793 58.56C189.879 58.56 189.953 58.6027 190.017 58.688C190.103 58.7733 190.113 58.8587 190.049 58.944C188.94 60.48 187.66 61.728 186.209 62.688C184.78 63.648 183.297 64.352 181.761 64.8C180.225 65.248 178.775 65.472 177.409 65.472ZM189.287 64.416C189.117 64.416 189.074 64.3413 189.159 64.192C189.202 64.064 189.309 63.744 189.479 63.232C189.671 62.72 189.895 62.1013 190.151 61.376C190.407 60.6507 190.674 59.9147 190.951 59.168C191.229 58.4 191.485 57.7173 191.719 57.12C191.57 57.312 191.335 57.5893 191.015 57.952C190.717 58.3147 190.397 58.6987 190.055 59.104C189.714 59.5093 189.394 59.8613 189.095 60.16C189.031 60.224 188.989 60.256 188.967 60.256C188.903 60.256 188.871 60.192 188.871 60.064C188.871 59.808 188.935 59.5733 189.063 59.36C189.533 58.7627 189.981 58.208 190.407 57.696C190.855 57.1627 191.261 56.6613 191.623 56.192C191.41 56.064 191.303 55.904 191.303 55.712C191.303 55.4133 191.453 55.264 191.751 55.264C191.879 55.264 191.975 55.2853 192.039 55.328C192.061 55.3493 192.082 55.36 192.103 55.36C192.125 55.36 192.146 55.3813 192.167 55.424C192.274 55.2747 192.359 55.136 192.423 55.008C192.509 54.88 192.583 54.7413 192.647 54.592C192.733 54.4 192.903 54.0373 193.159 53.504C193.437 52.9493 193.778 52.2987 194.183 51.552C194.589 50.8053 195.047 50.0373 195.559 49.248C196.093 48.4373 196.658 47.6907 197.255 47.008C197.874 46.304 198.503 45.7387 199.143 45.312C199.805 44.8853 200.477 44.672 201.159 44.672C201.245 44.672 201.33 44.6827 201.415 44.704C201.501 44.704 201.586 44.7147 201.671 44.736C202.205 44.8427 202.578 45.0347 202.791 45.312C203.005 45.568 203.111 45.8773 203.111 46.24C203.111 46.496 203.058 46.7733 202.951 47.072C202.866 47.3493 202.738 47.6267 202.567 47.904C202.141 48.6507 201.575 49.408 200.871 50.176C200.167 50.9227 199.378 51.6693 198.503 52.416C197.65 53.1413 196.786 53.856 195.911 54.56C195.058 55.2427 194.258 55.8933 193.511 56.512C192.999 57.6 192.605 58.5707 192.327 59.424C192.05 60.256 191.837 60.928 191.687 61.44C191.922 61.1413 192.274 60.7147 192.743 60.16C193.213 59.6053 193.746 59.008 194.343 58.368C194.941 57.728 195.559 57.12 196.199 56.544C196.839 55.9467 197.447 55.4667 198.023 55.104C198.599 54.72 199.09 54.528 199.495 54.528C200.007 54.528 200.263 54.7947 200.263 55.328C200.263 55.84 200.082 56.4053 199.719 57.024C199.357 57.6427 199.058 58.1653 198.823 58.592C198.525 59.2107 198.279 59.808 198.087 60.384C197.917 60.9387 197.81 61.3973 197.767 61.76C197.746 61.8453 197.735 61.9307 197.735 62.016C197.735 62.08 197.735 62.1547 197.735 62.24C197.735 63.0933 198.034 63.52 198.631 63.52C198.951 63.52 199.378 63.328 199.911 62.944C200.445 62.56 200.989 62.1013 201.543 61.568C202.098 61.0347 202.599 60.5227 203.047 60.032C203.517 59.52 203.837 59.136 204.007 58.88C204.071 58.816 204.146 58.784 204.231 58.784C204.317 58.784 204.381 58.816 204.423 58.88C204.466 58.944 204.466 59.0293 204.423 59.136C204.21 59.4987 203.879 59.9573 203.431 60.512C202.983 61.0453 202.482 61.5893 201.927 62.144C201.373 62.6773 200.829 63.136 200.295 63.52C200.018 63.7333 199.655 63.9147 199.207 64.064C198.781 64.2347 198.354 64.32 197.927 64.32C197.586 64.32 197.255 64.2347 196.935 64.064C196.615 63.8933 196.381 63.5733 196.231 63.104C196.167 62.912 196.135 62.6453 196.135 62.304C196.135 62.1973 196.135 62.0907 196.135 61.984C196.135 61.856 196.146 61.728 196.167 61.6C196.253 60.9173 196.477 60.2027 196.839 59.456C197.223 58.688 197.575 58.0053 197.895 57.408C197.981 57.2373 198.045 57.088 198.087 56.96C198.151 56.832 198.183 56.7253 198.183 56.64C198.183 56.4693 198.109 56.384 197.959 56.384C197.81 56.384 197.575 56.48 197.255 56.672C196.935 56.864 196.509 57.1947 195.975 57.664C195.506 58.0693 195.005 58.6027 194.471 59.264C193.959 59.904 193.447 60.5653 192.935 61.248C192.445 61.9307 192.007 62.5173 191.623 63.008C191.261 63.4987 191.005 63.7867 190.855 63.872C190.749 63.936 190.503 64.0427 190.119 64.192C189.735 64.3413 189.458 64.416 189.287 64.416ZM194.119 55.072C194.973 54.496 195.901 53.7813 196.903 52.928C197.906 52.0533 198.845 51.1253 199.719 50.144C200.615 49.1413 201.298 48.192 201.767 47.296C202.023 46.8053 202.151 46.4 202.151 46.08C202.151 45.7173 201.991 45.536 201.671 45.536C201.522 45.536 201.351 45.5787 201.159 45.664C200.967 45.728 200.743 45.856 200.487 46.048C199.058 47.1573 197.853 48.48 196.871 50.016C195.89 51.5307 194.973 53.216 194.119 55.072ZM212.522 64.32C212.159 64.32 211.818 64.2347 211.498 64.064C211.199 63.8933 210.975 63.5733 210.826 63.104C210.762 62.912 210.73 62.6453 210.73 62.304C210.73 61.8347 210.794 61.312 210.922 60.736C211.05 60.16 211.188 59.6693 211.338 59.264C211.231 59.3067 211.028 59.4987 210.73 59.84C210.452 60.16 210.1 60.5547 209.674 61.024C209.268 61.472 208.81 61.9307 208.298 62.4C207.807 62.848 207.295 63.2213 206.762 63.52C206.228 63.8187 205.706 63.968 205.194 63.968C204.852 63.968 204.49 63.872 204.106 63.68C203.722 63.4667 203.412 63.2 203.178 62.88C202.858 62.4533 202.698 62.016 202.698 61.568C202.698 60.992 202.89 60.3947 203.274 59.776C203.679 59.1573 204.191 58.56 204.81 57.984C205.45 57.3867 206.122 56.8533 206.826 56.384C207.551 55.8933 208.234 55.488 208.874 55.168C209.535 54.8267 210.068 54.6027 210.474 54.496C210.9 54.368 211.38 54.304 211.914 54.304C212.212 54.304 212.522 54.3467 212.842 54.432C213.162 54.496 213.428 54.6133 213.642 54.784C213.812 54.8693 213.951 54.9867 214.058 55.136C214.164 55.2853 214.218 55.4453 214.218 55.616C214.218 55.7867 214.143 55.84 213.994 55.776C213.823 55.52 213.588 55.36 213.29 55.296C213.012 55.2107 212.724 55.168 212.426 55.168C211.572 55.168 210.634 55.4453 209.61 56C208.586 56.5547 207.668 57.2053 206.858 57.952C206.602 58.1653 206.25 58.5387 205.802 59.072C205.375 59.584 204.98 60.1493 204.618 60.768C204.255 61.3867 204.074 61.952 204.074 62.464C204.074 62.7413 204.148 62.9867 204.298 63.2C204.383 63.3493 204.522 63.424 204.714 63.424C205.012 63.424 205.407 63.264 205.898 62.944C206.41 62.624 206.932 62.24 207.466 61.792C207.999 61.3227 208.479 60.8747 208.906 60.448C209.354 60.0213 209.674 59.712 209.866 59.52C209.972 59.4133 210.175 59.2 210.474 58.88C210.794 58.5387 211.135 58.176 211.498 57.792C211.86 57.408 212.18 57.0773 212.458 56.8C212.756 56.5227 212.948 56.384 213.034 56.384C213.14 56.384 213.311 56.416 213.546 56.48C213.802 56.5227 214.015 56.5973 214.186 56.704C214.356 56.8107 214.388 56.9493 214.282 57.12C213.727 57.9307 213.279 58.784 212.938 59.68C212.618 60.5547 212.426 61.248 212.362 61.76C212.34 61.8453 212.33 61.9307 212.33 62.016C212.33 62.08 212.33 62.1547 212.33 62.24C212.33 63.0933 212.628 63.52 213.226 63.52C213.546 63.52 213.972 63.328 214.506 62.944C215.039 62.56 215.583 62.1013 216.138 61.568C216.692 61.0347 217.194 60.5227 217.642 60.032C218.111 59.52 218.431 59.136 218.602 58.88C218.666 58.816 218.73 58.784 218.794 58.784C218.879 58.784 218.954 58.8267 219.018 58.912C219.082 58.976 219.082 59.0613 219.018 59.168C218.783 59.552 218.442 60.0107 217.994 60.544C217.546 61.0773 217.044 61.6107 216.49 62.144C215.935 62.6773 215.391 63.136 214.858 63.52C214.58 63.7333 214.228 63.9147 213.802 64.064C213.375 64.2347 212.948 64.32 212.522 64.32ZM212.718 74.944C212.462 74.944 212.334 74.8373 212.334 74.624C212.334 74.5387 212.366 74.4213 212.43 74.272C212.686 73.7173 213.048 72.8853 213.518 71.776C213.987 70.688 214.51 69.4293 215.086 68C215.64 66.592 216.206 65.1413 216.782 63.648C217.294 62.3253 217.784 61.0347 218.254 59.776C218.744 58.5173 219.15 57.3867 219.47 56.384C219.79 55.36 219.95 54.5707 219.95 54.016C219.95 53.8453 220.067 53.7493 220.302 53.728C220.536 53.6853 220.76 53.664 220.974 53.664C221.678 53.664 222.03 53.8987 222.03 54.368C222.03 54.752 221.816 55.2533 221.39 55.872C221.006 56.4907 220.675 57.1307 220.398 57.792C220.12 58.432 219.843 59.0933 219.566 59.776C220.078 59.0933 220.558 58.4213 221.006 57.76C221.454 57.0987 221.976 56.5333 222.574 56.064C223.043 55.7013 223.502 55.4133 223.95 55.2C224.419 54.9653 224.92 54.848 225.454 54.848C226.008 54.848 226.563 54.9867 227.118 55.264C227.672 55.52 227.992 55.936 228.078 56.512C228.099 56.576 228.11 56.6507 228.11 56.736C228.11 56.8 228.11 56.864 228.11 56.928C228.11 57.6747 227.886 58.4107 227.438 59.136C227.011 59.84 226.499 60.4693 225.902 61.024C225.304 61.5787 224.75 62.0267 224.238 62.368C223.811 62.624 223.288 62.9013 222.67 63.2C222.072 63.4987 221.432 63.7547 220.75 63.968C220.088 64.1813 219.448 64.288 218.83 64.288C218.446 64.288 218.126 64.2453 217.87 64.16C217.592 64.8 217.272 65.6213 216.91 66.624C216.547 67.648 216.206 68.6507 215.886 69.632C215.736 70.0587 215.683 70.4 215.726 70.656C215.768 70.9333 215.715 71.2747 215.566 71.68C215.438 72.1067 215.299 72.512 215.15 72.896C215 73.3013 214.83 73.6853 214.638 74.048C214.595 74.1333 214.467 74.2507 214.254 74.4C214.019 74.5493 213.763 74.6773 213.486 74.784C213.187 74.8907 212.931 74.944 212.718 74.944ZM218.126 63.648C218.808 63.648 219.523 63.488 220.27 63.168C221.016 62.848 221.752 62.4213 222.478 61.888C223.203 61.3547 223.854 60.7787 224.43 60.16C225.027 59.52 225.507 58.9013 225.87 58.304C226.296 57.6213 226.51 56.992 226.51 56.416C226.51 55.7547 226.222 55.424 225.646 55.424C225.496 55.424 225.315 55.456 225.102 55.52C224.888 55.5627 224.643 55.6587 224.366 55.808C223.235 56.4053 222.307 57.1093 221.582 57.92C220.856 58.7093 220.238 59.584 219.726 60.544C219.214 61.504 218.68 62.5387 218.126 63.648ZM231.474 64.32C231.09 64.32 230.738 64.2347 230.418 64.064C230.12 63.8933 229.896 63.5733 229.746 63.104C229.725 63.04 229.704 62.976 229.682 62.912C229.682 62.848 229.682 62.7733 229.682 62.688C229.682 62.2613 229.778 61.728 229.97 61.088C230.162 60.448 230.397 59.8293 230.674 59.232C230.546 59.4027 230.397 59.616 230.226 59.872C230.056 60.1067 229.81 60.416 229.49 60.8C229.405 60.8853 229.309 60.928 229.202 60.928C229.053 60.928 228.978 60.8427 228.978 60.672C228.978 60.544 229.021 60.4373 229.106 60.352C229.661 59.648 230.152 59.0187 230.578 58.464C231.026 57.9093 231.357 57.44 231.57 57.056C231.57 57.0133 231.634 56.8853 231.762 56.672C231.89 56.4373 232.061 56.1173 232.274 55.712C232.104 55.7333 231.954 55.7547 231.826 55.776C231.72 55.776 231.624 55.776 231.538 55.776C231.389 55.776 231.261 55.712 231.154 55.584C231.048 55.456 231.037 55.296 231.122 55.104C231.229 54.8053 231.464 54.6347 231.826 54.592C232.189 54.5493 232.509 54.5173 232.786 54.496C232.808 54.4533 232.85 54.432 232.914 54.432C233.17 53.9627 233.416 53.504 233.65 53.056C233.885 52.608 234.077 52.2347 234.226 51.936C234.397 51.6373 234.482 51.4773 234.482 51.456C234.909 50.7733 235.186 50.3253 235.314 50.112C235.442 49.8773 235.613 49.7387 235.826 49.696C236.061 49.6747 236.306 49.6853 236.562 49.728C236.84 49.7707 237.021 49.8667 237.106 50.016C237.17 50.1013 237.202 50.208 237.202 50.336C237.202 50.528 237.16 50.72 237.074 50.912C236.989 51.0827 236.904 51.2213 236.818 51.328C236.733 51.4773 236.616 51.584 236.466 51.648C236.338 51.6907 236.221 51.8187 236.114 52.032C235.901 52.4373 235.666 52.8747 235.41 53.344C235.154 53.8133 234.888 54.2613 234.61 54.688L234.994 54.656C235.506 54.6133 235.986 54.56 236.434 54.496C236.904 54.432 237.437 54.4107 238.034 54.432C238.141 54.432 238.248 54.4533 238.354 54.496C238.482 54.5173 238.546 54.56 238.546 54.624C238.546 54.7093 238.269 54.8267 237.714 54.976C237.501 55.0613 237.032 55.1573 236.306 55.264C235.602 55.3493 234.877 55.4347 234.13 55.52C233.917 55.9253 233.725 56.2667 233.554 56.544C233.384 56.8 233.266 56.992 233.202 57.12C232.733 58.1013 232.306 58.9973 231.922 59.808C231.56 60.5973 231.357 61.248 231.314 61.76C231.293 61.8453 231.282 61.9307 231.282 62.016C231.282 62.08 231.282 62.1547 231.282 62.24C231.282 63.0933 231.56 63.52 232.114 63.52C232.456 63.52 232.893 63.3387 233.426 62.976C233.96 62.592 234.504 62.1333 235.058 61.6C235.613 61.0453 236.114 60.5227 236.562 60.032C237.032 59.52 237.352 59.136 237.522 58.88C237.586 58.816 237.65 58.784 237.714 58.784C237.8 58.784 237.864 58.816 237.906 58.88C237.97 58.944 237.981 59.0293 237.938 59.136C237.746 59.4987 237.416 59.9573 236.946 60.512C236.498 61.0453 235.986 61.5893 235.41 62.144C234.856 62.6773 234.312 63.136 233.778 63.52C233.501 63.7333 233.149 63.9147 232.722 64.064C232.317 64.2347 231.901 64.32 231.474 64.32ZM240.037 64.48C239.077 64.48 238.245 64.256 237.541 63.808C236.837 63.36 236.485 62.6773 236.485 61.76C236.485 61.2693 236.634 60.672 236.933 59.968C237.146 59.4773 237.541 58.912 238.117 58.272C238.693 57.632 239.365 57.0133 240.133 56.416C240.901 55.7973 241.68 55.296 242.469 54.912C243.258 54.5067 243.973 54.304 244.613 54.304C244.848 54.304 245.061 54.336 245.253 54.4C245.616 54.528 245.861 54.7307 245.989 55.008C246.138 55.2853 246.213 55.5733 246.213 55.872C246.213 56.1493 246.17 56.416 246.085 56.672C246 56.928 245.893 57.152 245.765 57.344C245.381 57.92 244.826 58.432 244.101 58.88C243.397 59.328 242.672 59.68 241.925 59.936C241.2 60.192 240.602 60.3413 240.133 60.384H240.069C239.792 60.384 239.653 60.2987 239.653 60.128C239.653 60.0213 239.738 59.968 239.909 59.968C240.421 59.9253 241.061 59.6907 241.829 59.264C242.618 58.816 243.312 58.3573 243.909 57.888C244.165 57.6747 244.464 57.376 244.805 56.992C245.168 56.608 245.349 56.2347 245.349 55.872C245.349 55.488 245.168 55.296 244.805 55.296C244.613 55.296 244.41 55.3387 244.197 55.424C244.005 55.5093 243.845 55.5733 243.717 55.616C243.098 55.9147 242.416 56.384 241.669 57.024C240.922 57.6427 240.24 58.3467 239.621 59.136C239.024 59.904 238.608 60.6827 238.373 61.472C238.309 61.6427 238.266 61.8133 238.245 61.984C238.224 62.1333 238.213 62.2827 238.213 62.432C238.213 62.944 238.373 63.3067 238.693 63.52C239.034 63.7333 239.44 63.84 239.909 63.84C240.613 63.84 241.338 63.6907 242.085 63.392C242.832 63.072 243.557 62.6667 244.261 62.176C244.965 61.6853 245.605 61.1627 246.181 60.608C246.778 60.032 247.28 59.4773 247.685 58.944C247.749 58.8587 247.824 58.816 247.909 58.816C247.994 58.7947 248.048 58.8053 248.069 58.848C248.154 58.8693 248.197 58.9333 248.197 59.04C248.197 59.1253 248.176 59.2107 248.133 59.296C247.536 60.128 246.81 60.9387 245.957 61.728C245.125 62.5173 244.197 63.1787 243.173 63.712C242.17 64.224 241.125 64.48 240.037 64.48ZM251.568 64.384C251.205 64.384 250.885 64.2987 250.608 64.128C250.33 63.9787 250.138 63.68 250.032 63.232C249.968 62.9973 249.936 62.7627 249.936 62.528C249.936 61.888 250.096 61.2693 250.416 60.672C250.757 60.0533 251.152 59.488 251.6 58.976C252.048 58.4427 252.432 57.9947 252.752 57.632C252.922 57.4613 253.114 57.2373 253.328 56.96C253.562 56.6827 253.68 56.4053 253.68 56.128C253.68 55.9573 253.594 55.7973 253.424 55.648C253.253 55.4773 252.944 55.36 252.496 55.296C252.24 55.2533 251.994 55.2213 251.76 55.2C251.546 55.1573 251.322 55.136 251.088 55.136C250.49 55.9467 249.904 56.768 249.328 57.6C248.773 58.4107 248.176 59.2107 247.536 60C247.386 60.1493 247.258 60.224 247.152 60.224C247.024 60.224 246.96 60.16 246.96 60.032C246.96 59.904 247.024 59.776 247.152 59.648C248.304 58.24 249.296 56.736 250.128 55.136C250.021 55.136 249.861 55.136 249.648 55.136C249.434 55.1147 249.264 55.0933 249.136 55.072C248.986 55.0293 248.869 54.9653 248.784 54.88C248.698 54.7947 248.656 54.7093 248.656 54.624C248.656 54.496 248.709 54.4213 248.816 54.4C249.093 54.3147 249.392 54.1867 249.712 54.016C250.032 53.8453 250.33 53.6213 250.608 53.344C250.906 53.0453 251.184 52.736 251.44 52.416C251.696 52.0747 251.898 51.8187 252.048 51.648C252.197 51.5413 252.357 51.488 252.528 51.488C252.634 51.488 252.73 51.52 252.816 51.584C252.922 51.648 252.976 51.744 252.976 51.872C252.976 52.0213 252.912 52.2133 252.784 52.448C252.592 52.7467 252.378 53.0773 252.144 53.44C251.93 53.8027 251.728 54.1333 251.536 54.432C251.92 54.4533 252.304 54.4747 252.688 54.496C253.072 54.5173 253.466 54.528 253.872 54.528C254.085 54.528 254.288 54.528 254.48 54.528C254.693 54.5067 254.906 54.496 255.12 54.496C255.76 54.496 256.08 54.656 256.08 54.976C256.08 55.1893 255.962 55.456 255.728 55.776C255.514 56.0747 255.248 56.4053 254.928 56.768C254.202 57.6 253.584 58.4747 253.072 59.392C252.56 60.3093 252.218 61.0133 252.048 61.504C251.877 62.016 251.792 62.4 251.792 62.656C251.792 63.168 251.994 63.424 252.4 63.424C252.762 63.424 253.2 63.2427 253.712 62.88C254.245 62.5173 254.789 62.08 255.344 61.568C255.898 61.0347 256.4 60.5227 256.848 60.032C257.296 59.52 257.616 59.136 257.808 58.88C257.85 58.816 257.914 58.784 258 58.784C258.085 58.784 258.16 58.8267 258.224 58.912C258.288 58.976 258.288 59.0613 258.224 59.168C257.989 59.5307 257.648 59.9893 257.2 60.544C256.752 61.0773 256.25 61.6107 255.696 62.144C255.141 62.6773 254.597 63.136 254.064 63.52C253.786 63.7333 253.402 63.9253 252.912 64.096C252.442 64.288 251.994 64.384 251.568 64.384Z" fill="#725982"/>
</svg>
